<?xml version="1.0" encoding="UTF-8" standalone="no"?>
<!-- Created with Inkscape (http://www.inkscape.org/) -->

<svg
   xmlns:dc="http://purl.org/dc/elements/1.1/"
   xmlns:cc="http://creativecommons.org/ns#"
   xmlns:rdf="http://www.w3.org/1999/02/22-rdf-syntax-ns#"
   xmlns:svg="http://www.w3.org/2000/svg"
   xmlns="http://www.w3.org/2000/svg"
   xmlns:sodipodi="http://sodipodi.sourceforge.net/DTD/sodipodi-0.dtd"
   xmlns:inkscape="http://www.inkscape.org/namespaces/inkscape"
   width="311.1702"
   height="371.13785"
   id="svg2"
   version="1.1"
   inkscape:version="0.48.4 r9939"
   sodipodi:docname="dakis_logo.svg">
  <defs
     id="defs4">
    <style
       id="style6"
       type="text/css">
    .fil1 {fill:#37B1A5}
    .fil0 {fill:#B6DDC7}
    .fil2 {fill:#F4F4EB}
    .fil4 {fill:#446785}
    .fil3 {fill:#D6AD43}
    .fil5 {fill:#446785;fill-rule:nonzero}
   </style>
  </defs>
  <sodipodi:namedview
     id="base"
     pagecolor="#ffffff"
     bordercolor="#666666"
     borderopacity="1.0"
     inkscape:pageopacity="0.0"
     inkscape:pageshadow="2"
     inkscape:zoom="1.88"
     inkscape:cx="231.90132"
     inkscape:cy="249.89679"
     inkscape:document-units="px"
     inkscape:current-layer="layer1"
     showgrid="false"
     inkscape:window-width="1313"
     inkscape:window-height="744"
     inkscape:window-x="53"
     inkscape:window-y="24"
     inkscape:window-maximized="1"
     fit-margin-top="0"
     fit-margin-left="0"
     fit-margin-right="0"
     fit-margin-bottom="0" />
  <metadata
     id="metadata7">
    <rdf:RDF>
      <cc:Work
         rdf:about="">
        <dc:format>image/svg+xml</dc:format>
        <dc:type
           rdf:resource="http://purl.org/dc/dcmitype/StillImage" />
        <dc:title />
      </cc:Work>
    </rdf:RDF>
  </metadata>
  <g
     inkscape:label="Layer 1"
     inkscape:groupmode="layer"
     id="layer1"
     transform="translate(-202.6797,-292.44655)">
    <path
       style="fill:#f2e07e;fill-opacity:1;stroke:none"
       d="m 343.39813,490.43796 -24.44784,8.27466 -45.88671,61.68378 1.12836,51.52853 48.51956,32.72249 57.54646,6.01793 51.1524,-15.04482 17.30155,-36.85983 -12.41198,-55.28973 -30.08965,-54.53749 z"
       id="path3876"
       inkscape:connector-curvature="0" />
    <path
       style="fill:#e89219;fill-opacity:1;stroke:#c47607;stroke-width:3;stroke-linecap:butt;stroke-linejoin:miter;stroke-miterlimit:4;stroke-opacity:1;stroke-dasharray:none"
       d="m 400.52047,655.34239 34.25926,6.48149 c 3.59761,-10.68948 13.2573,-12.71885 25.46296,-11.11112 -3.24008,-6.20344 1.09456,-9.37699 10.18519,-10.64814 l -25.14435,-4.62963"
       id="path3817"
       inkscape:connector-curvature="0"
       sodipodi:nodetypes="ccccc" />
    <path
       style="fill:#e89219;fill-opacity:1;stroke:#c47607;stroke-width:3;stroke-linecap:butt;stroke-linejoin:miter;stroke-miterlimit:4;stroke-opacity:1;stroke-dasharray:none"
       d="m 288.42593,634.30663 -40.74074,4.16666 c 8.25169,2.08602 14.56663,6.26002 16.66666,12.03704 15.00173,0.15336 21.00232,5.30735 25,11.57407 l 43.51852,-10.18518"
       id="path3815"
       inkscape:connector-curvature="0"
       sodipodi:nodetypes="ccccc" />
    <path
       style="fill:#c47607;fill-opacity:1;stroke:#c47607;stroke-width:1px;stroke-linecap:butt;stroke-linejoin:miter;stroke-opacity:1"
       d="m 422.51121,649.79736 7.38636,2.84091 3.40909,-3.97727 -6.81818,-0.56818 z"
       id="path3847"
       inkscape:connector-curvature="0"
       sodipodi:nodetypes="ccccc" />
    <path
       style="fill:#c47607;fill-opacity:1;stroke:#c47607;stroke-width:1px;stroke-linecap:butt;stroke-linejoin:miter;stroke-opacity:1"
       d="m 436.97439,641.43465 11.50512,4.10135 2.27273,-3.97728 -10.68878,-1.88196 z"
       id="path3849"
       inkscape:connector-curvature="0"
       sodipodi:nodetypes="ccccc" />
    <path
       style="fill:#c47607;fill-opacity:1;stroke:#c47607;stroke-width:1px;stroke-linecap:butt;stroke-linejoin:miter;stroke-opacity:1"
       d="m 289.20455,648.95309 3.97727,3.69318 17.89773,-5.39772 -20.45455,1.42045 z"
       id="path3845"
       inkscape:connector-curvature="0" />
    <path
       style="fill:#f1cd01;fill-opacity:1;stroke:#d8bb0e;stroke-width:3;stroke-linecap:butt;stroke-linejoin:miter;stroke-miterlimit:4;stroke-opacity:1;stroke-dasharray:none"
       d="m 424.66265,489.60803 -21.29629,6.01853 c 0,0 15.55483,21.54941 19.9074,32.4074 3.64967,9.10452 3.6998,19.2976 6.48148,28.7037 3.54461,11.98591 13.14806,22.68751 12.96298,35.18519 -0.20199,13.63912 -4.69873,29.35193 -15.27779,37.96296 -19.57931,15.93696 -45.59228,13.41405 -70.83334,13.88889 -26.49609,0.49846 -54.20748,-11.3949 -70.83333,-29.16667 -6.36856,-6.80751 -8.54444,-17.09428 -9.25926,-26.38889 -0.51757,-6.72979 1.32569,-13.59051 3.70371,-19.9074 4.36383,-11.59194 14.04221,-22.47262 18.98148,-31.94445 4.93927,-9.47183 5.27482,-17.71417 11.11111,-24.53703 3.83952,-4.48855 10.44656,-5.74638 14.81481,-9.72223 1.46154,-1.33025 3.70371,-4.62963 3.70371,-4.62963 l -23.61111,-8.33333 c -18.36874,10.748 -46.92682,13.94056 -76.3247,17.6146 l -9.05092,25.11959 57.13487,17.91396 c 0,0 -2.20546,7.9731 -4.16666,11.57408 -3.52829,6.4783 -7.27914,12.02098 -9.72223,18.98148 -2.19828,6.263 -4.54178,14.58046 -2.31481,20.83332 5.17786,14.53834 15.43847,24.25207 28.24074,32.87038 19.83633,13.35355 44.21747,20.80288 68.05556,22.68518 25.41796,2.00705 52.67058,-1.07161 75.46296,-12.5 9.75656,-4.89206 18.56145,-13.00927 23.61112,-22.68518 2.74677,-5.26321 3.35312,-11.68369 2.77778,-17.59259 -0.65292,-6.7056 -9.25925,-30.55556 -9.25925,-30.55556 0.28157,-0.56315 41.29231,12.38444 49.136,12.04342 7.84369,-0.34103 7.84696,-21.27555 7.5843,-21.46548 -28.45051,-20.57241 -55.79913,-43.38561 -81.72032,-74.37424 z"
       id="path3811"
       inkscape:connector-curvature="0"
       sodipodi:nodetypes="ccsssssssszsscccccssssssssccsc" />
    <path
       style="fill:#cc171e;fill-opacity:1;stroke:#9b070d;stroke-width:3;stroke-linecap:butt;stroke-linejoin:miter;stroke-miterlimit:4;stroke-opacity:1;stroke-dasharray:none"
       d="m 309.72222,477.82514 -6.01852,9.72223 44.44445,15.27778 -26.85185,90.27777 37.03703,25 47.22222,-22.22221 -25.46295,-82.87038 1.85184,-11.57407 41.66667,-13.42593 -6.48148,-6.94444 c 0,0 -22.14556,8.54301 -33.7963,10.18518 -12.073,1.70169 -24.62717,1.97108 -36.57407,-0.46296 -12.74874,-2.5974 -37.03704,-12.96297 -37.03704,-12.96297 z"
       id="path3813"
       inkscape:connector-curvature="0"
       sodipodi:nodetypes="ccccccccccssc" />
    <path
       style="fill:#f1cd01;fill-opacity:1;stroke:#d8bb0e;stroke-width:3;stroke-linecap:butt;stroke-linejoin:miter;stroke-miterlimit:4;stroke-opacity:1;stroke-dasharray:none"
       d="m 467.64779,406.19624 c 0,0 -37.47297,24.40757 -43.76878,24.55333 -10.06447,0.23302 -23.6193,0.0676 -26.10392,-2.3654 -6.56025,-6.42406 -15.44323,-14.87723 -16.88657,-15.00255 -5.27882,-0.45836 -13.98188,-0.69538 -14.56135,2.63989 -1.06012,6.10176 -4.86554,10.4806 -7.76171,11.81539 -5.73216,2.64185 -42.13644,4.32823 -45.27818,1.49492 -11.89,-10.72273 -26.26591,-28.43609 -26.06723,-31.42123 0.55282,-8.3057 0.7058,-25.96432 3.98365,-33.04841 7.71796,-16.68006 22.23932,-30.49851 37.5,-40.74073 10.81904,-7.26121 22.86262,-10.91451 35.64815,-13.42593 2.42757,-0.47684 7.40741,-0.46297 7.40741,-0.46297 0,0 -8.79834,1.02443 -12.03704,-1.38889 -0.94241,-0.70224 -1.9289,-2.19687 -1.38889,-3.24074 2.03046,-3.92498 8.56626,-3.22184 12.96297,-2.77777 2.68146,0.27083 7.4074,3.24074 7.4074,3.24074 0.32085,-0.24064 -13.03353,-5.12735 -18.98148,-8.7963 -0.94713,-0.58423 0.80801,-2.39208 1.85185,-2.77778 5.86571,-2.1674 12.27862,2.66403 18.05556,5.09259 6.83003,2.87127 18.51852,11.11112 18.51852,11.11112 0,0 24.35422,8.6149 34.72222,16.2037 9.17288,6.71404 17.24388,15.28611 23.14815,25 6.52014,10.72714 11.44492,23.25221 13.42593,35.64815 1.02399,6.40752 -0.46297,18.05555 -0.46297,18.05555"
       id="path3823"
       inkscape:connector-curvature="0"
       sodipodi:nodetypes="csssssssssscssscssscsssc" />
    <path
       style="fill:#ed921d;fill-opacity:1;stroke:#c0781e;stroke-width:3;stroke-linecap:butt;stroke-linejoin:miter;stroke-miterlimit:4;stroke-opacity:1;stroke-dasharray:none"
       d="m 285.18519,401.43626 c -14.11285,7.46985 -14.83856,13.55159 -14.81482,19.9074 0.0742,19.85989 4.37557,20.97917 8.7963,26.38889 8.77834,10.74222 18.51231,22.1901 29.62963,28.24074 21.81109,11.87075 30.8009,12.91221 45.83333,14.81482 20.24364,2.56218 27.73183,1.65532 35.64815,-0.46296 16.69765,-4.46802 28.98365,-12.22425 37.96297,-16.66667 15.07488,-7.45813 25.01611,-16.31541 35.18518,-25 6.21809,-5.31037 11.45582,-14.55681 11.11111,-18.98148 -0.64523,-10.54211 -6.28497,-33.58907 -12.96297,-28.24074 -6.59901,4.70216 -19.25571,16.23713 -31.01852,20.83333 -11.96137,4.67378 -20.28379,8.40184 -32.4074,4.16666 -7.52656,-2.62928 -9.12115,-11.77749 -16.66667,-14.35185 -3.37193,-1.15042 -8.5087,-0.42684 -11.57407,1.38889 -4.30857,2.55213 -6.01051,9.27132 -10.18519,12.03704 -7.5947,5.03147 -17.754,5.56623 -26.85185,5.09259 -9.65388,-0.50259 -19.5354,-3.28228 -27.77778,-8.33333 -8.18969,-5.01877 -19.9074,-20.83333 -19.9074,-20.83333"
       id="path3819"
       inkscape:connector-curvature="0"
       sodipodi:nodetypes="csssssssccsssssssc" />
    <path
       style="fill:#ed921d;fill-opacity:1;stroke:#c0781e;stroke-width:3;stroke-linecap:butt;stroke-linejoin:miter;stroke-miterlimit:4;stroke-opacity:1;stroke-dasharray:none"
       d="m 288.32071,439.10461 c 0,0 1.71388,-0.60079 -2.2096,5.3872 -2.95898,4.51597 -10.17946,4.41037 -13.88889,8.33334 -2.27649,2.40754 -4.78435,5.48649 -4.62963,8.79629 0.19787,4.23289 2.71919,10.97017 6.94445,10.64815 23.92989,-1.82379 39.75921,-4.22416 59.72222,-4.62963 20.9975,-0.42648 42.11312,-0.20734 62.96296,2.31482 18.14806,2.19534 34.96384,5.20031 53.70371,11.11111 4.47611,1.41182 9.87833,0.12327 13.88888,-2.31482 2.63733,-1.60328 6.1429,-4.37739 5.55556,-7.40741 -3.08142,-15.89669 -13.91026,-19.27254 -14.81481,-30.55555 -0.51501,-6.42402 0.15782,-3.17761 0.15782,-3.17761"
       id="path3821"
       inkscape:connector-curvature="0"
       sodipodi:nodetypes="cssssssssssc" />
    <path
       style="fill:#cecece;fill-opacity:1;stroke:none"
       d="m 372.44318,381.33946 c 0.6595,3.1868 1.57209,6.4083 1.42046,9.65909 -0.1862,3.99205 -1.26759,7.97406 -2.84091,11.64772 -1.72703,4.03258 -3.91799,8.06216 -7.10228,11.07955 -2.9244,2.77112 -6.67333,4.74088 -10.51136,5.96591 -4.44339,1.41825 -9.29839,2.04637 -13.92045,1.42045 -5.43708,-0.73629 -9.73813,-2.49512 -14.20455,-5.68182 -3.93826,-2.80986 -6.90464,-7.04791 -9.09091,-11.36363 -2.20047,-4.34374 -3.11129,-8.77618 -3.40909,-13.63637 -0.25647,-4.18563 0.0838,-9.48467 1.70455,-13.35227 1.97779,-4.71948 4.11906,-8.26036 7.95454,-11.64773 3.76187,-3.32236 8.08509,-6.19126 12.78409,-7.95454 3.86258,-1.44942 8.11427,-2.43238 12.21591,-1.98864 4.86024,0.52581 13.63637,5.39773 13.63637,5.39773 2.12964,0.84298 6.2864,5.29281 8.23863,8.80682 1.95223,3.51401 2.31036,7.71126 3.125,11.64773 z"
       id="path3835"
       inkscape:connector-curvature="0"
       sodipodi:nodetypes="ssssssssssssssss" />
    <path
       style="fill:#000000;fill-opacity:1;stroke:none"
       d="m 328.125,373.10082 c -1.89942,3.70128 -2.99677,8.07903 -2.55682,12.21591 0.39452,3.70971 1.24612,7.75586 3.4091,10.79545 2.33069,3.27526 6.27019,6.03686 9.94317,7.67046 4.08138,1.81524 8.94565,1.86738 13.35228,1.13636 4.1831,-0.69394 8.42037,-2.36335 11.64772,-5.11364 2.65899,-2.26595 4.59366,-5.48707 5.68182,-8.80681 0.97516,-2.97499 1.07411,-6.28542 0.56818,-9.375 -0.61098,-3.73108 -2.20788,-7.33687 -4.26136,-10.51137 -1.637,-2.53067 -3.66724,-4.98056 -6.25,-6.53409 -3.87902,-2.33323 -8.54437,-3.8541 -13.06818,-3.69318 -3.62226,0.12885 -7.16789,1.74957 -10.22727,3.69318 -2.03471,1.29264 -3.44652,3.37247 -5.11364,5.11364 -1.06611,1.11347 -2.42117,2.03759 -3.125,3.40909 z"
       id="path3837"
       inkscape:connector-curvature="0"
       sodipodi:nodetypes="ssssssssssssss" />
    <path
       style="fill:#cecece;fill-opacity:1;stroke:none"
       d="m 434.375,365.99855 c 2.90711,3.96097 4.66146,6.62665 5.96591,11.36363 1.33463,4.84657 1.75407,10.73992 0.56818,15.62501 -1.01147,4.16657 -3.96813,10.14904 -6.81818,13.35226 -4.26788,4.79675 -7.95798,8.12968 -13.92046,10.51137 -4.77802,1.90856 -10.25227,2.46476 -15.3409,1.70454 -5.202,-0.77716 -10.63368,-2.67172 -14.48864,-6.25 -3.44588,-3.19857 -4.96826,-8.06682 -6.53409,-12.5 -2.09058,-5.91884 -4.48315,-12.23861 -3.69318,-18.4659 0.76754,-6.05047 4.30557,-11.59033 7.95454,-16.47728 2.52678,-3.38404 5.54645,-6.73986 9.375,-8.52272 4.50423,-2.09751 9.80517,-2.09329 14.77273,-1.98864 4.32722,0.0912 8.94635,0.2715 12.78409,2.27273 3.91863,2.04342 6.76011,5.81219 9.375,9.375 z"
       id="path3841"
       inkscape:connector-curvature="0"
       sodipodi:nodetypes="ssssssssssssss" />
    <path
       style="fill:#000000;fill-opacity:1;stroke:none"
       d="m 392.04545,397.81673 c 4.02308,2.28284 8.16546,5.14342 12.7841,5.39773 4.63699,0.25532 9.51354,-1.36365 13.35227,-3.97728 3.67981,-2.50543 6.57296,-6.38295 8.23863,-10.51136 1.38909,-3.44289 1.9134,-7.44922 1.13637,-11.07955 -1.03006,-4.81251 -3.78733,-9.42728 -7.38637,-12.78409 -3.31392,-3.09088 -7.7285,-5.33438 -12.2159,-5.96591 -4.85631,-0.68345 -10.05895,0.45236 -14.48864,2.55682 -2.48641,1.18125 -4.4836,3.28648 -6.25,5.39773 -1.90712,2.27945 -3.75995,4.8041 -4.54546,7.67045 -1.00114,3.65319 -0.98489,7.70604 0,11.36364 0.88263,3.27784 2.84469,6.28192 5.11364,8.80682 1.17736,1.31018 2.72935,2.25568 4.26136,3.125 z"
       id="path3839"
       inkscape:connector-curvature="0"
       sodipodi:nodetypes="sssssssssssss" />
    <path
       style="fill:#c47607;fill-opacity:1;stroke:#c47607;stroke-width:1px;stroke-linecap:butt;stroke-linejoin:miter;stroke-opacity:1"
       d="m 267.32955,641.56673 3.40909,3.40909 17.04545,-5.39773 z"
       id="path3843"
       inkscape:connector-curvature="0" />
    <g
       id="g3904"
       transform="translate(-617.55319,-0.13297872)">
      <path
         sodipodi:nodetypes="ccsscssscsscsccccsccc"
         inkscape:connector-curvature="0"
         id="path3887"
         d="m 1090.4953,594.74005 c -10.2336,-3.94649 -16.5181,-6.69972 -17.173,-7.18398 -0.2699,-0.32177 -2.2775,-5.39395 -2.1353,-5.53611 0.072,-0.0721 8.9739,3.15378 19.7818,7.16856 10.8079,4.01477 15.316,5.8541 15.8738,5.29332 0.2386,-0.26629 18.1245,-53.09634 18.0116,-53.20919 -0.083,-0.0826 -4.643,-3.09468 -14.9298,-7.37486 -10.2869,-4.28019 -19.8733,-8.92695 -21.7381,-9.41871 -1.8752,-0.49451 -3.0528,-0.67501 -3.075,-0.63752 -0.022,0.0375 -3.5476,10.51364 -7.8343,25.06816 -4.2867,14.55452 -7.8996,26.57646 -8.0287,26.71542 -0.3245,0.34931 -1.8872,-5.12552 -1.538,-6.84759 0.1572,-0.77515 3.2285,-10.27905 6.825,-23.88277 5.5159,-20.86384 5.8027,-23.29169 8.8293,-24.83948 9.5572,-1.15728 22.2996,7.68441 25.6404,9.16439 4.705,3.89948 19.8311,6.79615 22.2499,11.45537 1.1307,3.12077 -4.5036,15.14148 -6.9197,22.56753 -6.6084,20.31185 -8.0143,21.56919 -9.847,28.56427 -1.6604,6.33735 -1.9956,5.52892 -3.8565,8.36956 -5.1503,0.88425 -16.0437,-4.06532 -20.1363,-5.43637 z"
         style="fill:#a8904a;fill-opacity:1;fill-rule:nonzero;stroke:#a8904a;stroke-width:0;stroke-linecap:round;stroke-linejoin:round;stroke-miterlimit:4;stroke-opacity:1;stroke-dasharray:none" />
      <path
         inkscape:connector-curvature="0"
         id="path3902"
         d="m 1097.1384,591.46117 c -5.3692,-2.05278 -20.5483,-7.66096 -23.4042,-8.64709 -0.8045,-0.2778 -1.5301,-0.55593 -1.6123,-0.61807 -0.082,-0.0621 -0.6999,-1.72028 -1.3726,-3.68478 l -1.223,-3.57181 1.1295,-3.63985 c 0.6212,-2.00192 2.5164,-8.3074 4.2115,-14.01219 4.7879,-16.11306 6.3544,-21.2187 9.5814,-31.22792 l 0.7217,-2.23855 0.6671,0.0752 c 1.0082,0.11359 1.5992,0.3435 6.7132,2.61134 4.4064,1.95409 7.8115,3.42079 17.7459,7.64401 5.7096,2.42723 10.114,4.28214 14.2631,6.60561 l 0.6792,0.92571 -1.3242,4.1212 c -1.9575,6.09217 -11.778,35.73041 -14.2426,42.98423 -1.6279,4.79121 -2.2336,6.11013 -3.3919,5.98838 -2.3319,-0.73463 -6.1645,-2.18132 -9.1418,-3.31542 z"
         style="fill:#faf7f7;fill-opacity:1;fill-rule:nonzero;stroke:#a8904a;stroke-width:0;stroke-linecap:round;stroke-linejoin:round;stroke-miterlimit:4;stroke-opacity:1;stroke-dasharray:none"
         sodipodi:nodetypes="ccccccssccssccsscc" />
    </g>
    <path
       style="fill:#ed921d;fill-opacity:1;stroke:none"
       d="m 286.43617,402.89409 -1.8617,5.31916 22.07446,23.13829 28.72341,10.37234 51.06383,-0.26595 52.12766,-1.59575 26.32978,-28.45744 c -5.72755,-14.01388 -5.5231,-8.15723 -16.48935,-1.06384 -8.56244,5.53456 -17.36295,10.92359 -26.86171,14.62766 -3.74602,1.46077 -7.68271,2.82147 -11.70212,2.92553 -4.15395,0.10755 -8.55301,-0.46571 -12.23405,-2.39361 -4.05419,-2.12332 -6.32824,-6.64028 -9.84042,-9.57447 -2.34102,-1.95576 -4.49236,-4.55981 -7.44681,-5.31915 -2.93944,-0.75548 -6.31138,-0.2597 -9.04255,1.06383 -2.48213,1.20284 -3.99457,3.81117 -5.85107,5.85106 -2.24618,2.46805 -3.69047,5.74123 -6.38298,7.71277 -3.24091,2.3731 -7.23325,3.72419 -11.17021,4.52128 -5.82225,1.1788 -11.92605,1.0139 -17.81915,0.26595 -6.65672,-0.84486 -13.43927,-2.26665 -19.41489,-5.31914 -5.16615,-2.63899 -9.37716,-6.88864 -13.56383,-10.90426 -4.08071,-3.91398 -10.6383,-10.90426 -10.6383,-10.90426 z"
       id="path3878"
       inkscape:connector-curvature="0"
       sodipodi:nodetypes="ccccccccssssssssssssc" />
    <path
       style="fill:#c0781e;fill-opacity:1;stroke:#c0781e;stroke-width:2.54205036;stroke-linecap:butt;stroke-linejoin:miter;stroke-miterlimit:4;stroke-opacity:1;stroke-dasharray:none"
       d="m 381.28912,421.1593 c 0,0 0.48975,7.03335 2.88869,9.14753 1.3461,1.18631 3.56403,1.43176 5.29594,0.96289 0.71408,-0.19332 1.46589,-0.73776 1.68507,-1.44434 0.36906,-1.18975 -0.20153,-2.62494 -0.9629,-3.61087 -2.08654,-2.70192 -8.9068,-5.05521 -8.9068,-5.05521 z"
       id="path3861"
       inkscape:connector-curvature="0"
       sodipodi:nodetypes="cssssc" />
    <path
       style="fill:#c0781e;fill-opacity:1;stroke:#c0781e;stroke-width:2.67302132;stroke-linecap:butt;stroke-linejoin:miter;stroke-miterlimit:4;stroke-opacity:1;stroke-dasharray:none"
       d="m 375.07164,420.94069 c 0,0 0.15036,7.90887 -2.53126,10.12508 -1.17251,0.96901 -3.10437,0.70667 -4.55629,0.25313 -0.91827,-0.28684 -1.85547,-0.90769 -2.27813,-1.77189 -0.33364,-0.68217 -0.35625,-1.60751 0,-2.27815 1.7675,-3.32741 9.36568,-6.32817 9.36568,-6.32817 z"
       id="path3863"
       inkscape:connector-curvature="0"
       sodipodi:nodetypes="cssssc" />
    <path
       style="fill:#d8bb0e;fill-opacity:1;stroke:#d9c212;stroke-width:2.8538878;stroke-linecap:butt;stroke-linejoin:miter;stroke-miterlimit:4;stroke-opacity:1;stroke-dasharray:none"
       d="m 321.65392,347.83178 c 5.45818,-0.32017 10.6964,-1.59229 16.15457,-1.91246 6.38732,-0.37467 19.24798,0 19.24798,0 l 1.03115,-4.2499 c 0,0 -14.30916,-0.33106 -21.31027,0.425 -4.39004,0.47408 -8.84622,1.18502 -12.71742,2.54993 -2.25637,0.79556 -5.84315,3.18743 -5.84315,3.18743 0,0 2.29655,0.0669 3.43714,0 z"
       id="path3865"
       inkscape:connector-curvature="0"
       sodipodi:nodetypes="ssccsscs" />
    <path
       style="fill:#d9c212;fill-opacity:1;stroke:#d9c212;stroke-width:2.42354107;stroke-linecap:butt;stroke-linejoin:miter;stroke-miterlimit:4;stroke-opacity:1;stroke-dasharray:none"
       d="m 391.34112,339.87951 0.85773,3.84098 c 0,0 16.10076,-2.73623 22.96642,-1.90718 4.22845,0.51059 13.74647,3.37384 14.29722,3.18479 0.53096,-0.18223 0.26035,-1.35835 0.0757,-1.84585 -0.54319,-1.43416 -8.33838,-3.78262 -12.68727,-4.83854 -7.3686,-1.78914 -25.50981,1.5658 -25.50981,1.5658 z"
       id="path3867"
       inkscape:connector-curvature="0"
       sodipodi:nodetypes="ccssssc" />
    <path
       style="fill:#ebebeb;fill-opacity:1;stroke:none"
       d="m 328.40909,389.294 c 1.89686,-0.98306 4.17609,-1.93363 6.25,-1.42045 1.695,0.41942 3.02501,1.94548 3.97727,3.40909 1.07835,1.65741 1.98326,3.72423 1.70455,5.68182 -0.27027,1.89832 -1.66757,3.58352 -3.125,4.82954 -1.41779,1.21213 -2.97095,1.57862 -4.82955,1.42046 -1.36082,-0.1158 -2.70609,-0.47658 -3.69318,-1.42046 -1.2731,-1.21737 -2.57697,-2.58732 -3.125,-4.26136 -0.58925,-1.79994 -0.77053,-3.95171 0,-5.68182 0.51832,-1.16382 1.70977,-1.9706 2.84091,-2.55682 z"
       id="path3869"
       inkscape:connector-curvature="0"
       sodipodi:nodetypes="ssssssssss" />
    <path
       style="fill:#ebebeb;fill-opacity:1;stroke:none"
       d="m 413.63636,389.00991 c -0.40532,1.88844 0.225,3.97891 1.13637,5.68182 1.01107,1.8892 2.51031,3.87497 4.54545,4.54545 1.81896,0.59926 4.01858,0.0971 5.68182,-0.85227 1.69545,-0.96779 3.13246,-2.67548 3.69318,-4.54545 0.54669,-1.82319 0.0195,-3.87142 -0.56818,-5.68182 -0.40617,-1.2513 -0.96754,-2.57958 -1.98864,-3.40909 -1.39457,-1.1329 -3.31873,-1.78597 -5.11363,-1.70455 -1.65211,0.0749 -3.26104,0.94683 -4.54546,1.98864 -1.26533,1.02632 -2.49901,2.38432 -2.84091,3.97727 z"
       id="path3871"
       inkscape:connector-curvature="0"
       sodipodi:nodetypes="ssssssssss" />
    <path
       style="fill:#f6f6f6;fill-opacity:1;stroke:none"
       d="m 434.65909,359.74855 c 0,0 6.73143,1.42784 9.65909,3.125 2.43585,1.41206 4.66982,3.35151 6.25,5.68181 1.81636,2.6786 2.74351,5.92372 3.40909,9.09091 0.70218,3.34137 0.68571,6.81495 0.56818,10.22728 -0.0526,1.52604 -0.56818,4.54545 -0.56818,4.54545 0,0 3.63392,-5.87457 4.82955,-9.09091 1.48885,-4.00514 2.23993,-8.26955 2.84091,-12.5 0.22681,-1.5966 0.28409,-4.82954 0.28409,-4.82954 0,0 -3.74093,-1.64513 -5.68182,-2.27273 -2.22904,-0.72077 -4.52165,-1.24186 -6.81818,-1.70455 -4.88404,-0.98401 -14.77273,-2.27272 -14.77273,-2.27272 z"
       id="path3873"
       inkscape:connector-curvature="0"
       sodipodi:nodetypes="csssscsscssc" />
    <path
       style="fill:#f6f6f6;fill-opacity:1;stroke:none"
       d="m 287.78409,370.25991 c 0,0 1.39252,5.85693 1.98864,8.80682 0.53351,2.64009 1.53197,6.21721 2.27272,8.80681 0.98173,3.43206 3.125,9.09092 3.125,9.09092 l 1.13637,1.98863 c 0,0 0.0364,-3.78823 0,-5.68182 -0.0474,-2.46349 -0.3537,-4.9234 -0.28409,-7.38636 0.0564,-1.99684 0.069,-4.03164 0.56818,-5.96591 0.59342,-2.29966 1.41669,-4.63352 2.84091,-6.53409 0.88704,-1.18373 2.73931,-3.16762 3.97727,-3.97727 7.43024,-4.94417 3.05936,-1.2189 9.94318,-5.39773 0,0 -3.42364,0.0425 -5.11363,0.28409 -4.13856,0.59165 -8.2165,1.62335 -12.21591,2.84091 -2.80981,0.8554 -8.23864,3.125 -8.23864,3.125 z"
       id="path3875"
       inkscape:connector-curvature="0"
       sodipodi:nodetypes="cssccssssccssc" />
    <path
       style="fill:none;stroke:#c0781e;stroke-width:3;stroke-linecap:butt;stroke-linejoin:miter;stroke-miterlimit:4;stroke-opacity:1;stroke-dasharray:none"
       d="m 288.35227,440.99855 c 1.05449,-5.4796 1.71382,-10.5021 0.56819,-18.18182"
       id="path3895"
       inkscape:connector-curvature="0"
       sodipodi:nodetypes="cc" />
    <path
       style="fill:none;stroke:#c0781e;stroke-width:3;stroke-linecap:butt;stroke-linejoin:miter;stroke-miterlimit:4;stroke-opacity:1;stroke-dasharray:none"
       d="m 455.39773,438.44172 c 0.33677,-5.96591 1.76212,-9.94317 5.11363,-15.90908"
       id="path3897"
       inkscape:connector-curvature="0"
       sodipodi:nodetypes="cc" />
    <path
       style="fill:#030000;fill-opacity:1;stroke:none"
       d="m 322.28661,428.41031 c -17.6827,-3.16936 -26.58167,-9.35877 -36.07609,-28.05289 -3.69998,-7.28511 -4.68836,-14.91782 -6.94491,-28.35794 -0.68032,-4.05201 -0.87248,-9.25064 -0.7997,-9.31648 0.88172,-0.79761 16.29674,-5.18002 21.47293,-6.77625 7.82782,-2.41394 19.54642,-3.43405 36.09909,-3.14246 12.44896,0.21931 14.872,0.45207 27.97008,2.68683 3.93701,1.27061 13.02051,0.39013 16.94094,-0.39856 3.40325,-0.68465 9.55694,-2.32254 11.2363,-2.55249 13.84752,-1.89609 16.05329,-3.70125 31.55394,-3.85195 16.2299,-0.15779 25.98337,2.22178 33.13877,3.9518 3.23608,0.78241 14.1262,3.72158 15.58243,6.28962 l 0.918,1.61888 -1.81617,8.82653 c -4.25158,20.66261 -7.66028,28.86422 -16.06507,38.65392 -7.95096,9.26107 -14.66795,13.37762 -25.65449,15.72248 -10.44704,2.22972 -17.73871,1.16459 -28.64722,-4.18463 -4.32959,-2.12311 -8.61219,-4.97718 -11.34216,-7.5588 -3.40217,-3.21731 -6.53541,-9.41533 -8.10201,-16.02705 -2.0619,-8.70202 -2.49151,-12.56802 -2.70625,-24.35269 l -0.20762,-11.39447 -1.45756,0.24106 c -0.80167,0.13259 -2.64964,0.24306 -4.10663,0.2455 l -2.64906,0.004 -0.25352,10.9481 c -0.37558,16.21885 0.45835,19.13512 -3.04032,29.60988 -4.30279,12.88228 -9.21034,19.91381 -16.83409,23.72961 -5.49195,2.74881 -9.91367,3.68422 -18.16548,3.8429 -4.69459,0.0903 -8.03216,-0.0443 -10.04413,-0.40487 l 0,0 z m 18.26831,-5.83538 c 17.24733,-6.72808 23.311,-20.73332 24.36358,-35.7755 0.46657,-6.9777 -0.22258,-21.06488 -0.62392,-23.95496 l -0.28589,-2.05874 -6.49793,-0.86495 c -10.43966,-1.38963 -13.57782,-1.64203 -23.79756,-1.91406 -10.428,-0.27757 -16.79931,0.12541 -24.28307,1.53588 -4.2783,0.80634 -14.91854,3.3745 -19.6865,4.7516 -1.43631,0.41484 -3.37985,0.95454 -4.31898,1.19933 -2.09582,0.5463 -2.07535,0.18885 -0.53415,9.32686 2.95575,17.52508 6.86057,24.64439 12.87553,32.62494 7.80612,10.35704 16.01144,13.64001 25.12323,15.74324 3.71015,0.8564 13.55809,0.51432 17.66566,-0.61364 z m 87.85547,-3.78879 c 13.54725,-3.43654 22.79791,-10.4355 29.79846,-22.54523 3.37601,-5.83992 5.31097,-12.4975 7.57214,-26.05334 1.01661,-6.0947 1.16082,-7.63533 0.73908,-7.89598 -0.672,-0.41532 -11.9548,-3.36554 -18.47735,-4.83144 -13.82142,-3.10629 -30.42797,-3.92503 -44.59953,-2.19886 -8.37349,1.01993 -16.25723,2.31015 -16.51488,2.70275 -0.59008,0.89916 -1.3619,12.0456 -1.3429,19.3939 0.0413,15.95784 2.19909,26.64026 9.34695,32.47797 3.71253,3.03205 8.43696,5.58602 16.73759,8.73564 3.21992,1.22178 12.5812,1.2697 16.74044,0.21459 z"
       id="path3914"
       inkscape:connector-curvature="0"
       sodipodi:nodetypes="csscssccsssscssssssscsccsssscccccscssssssssccsssssssssc" />
    <g
       id="g3956"
       transform="translate(-0.60982573,2.33229e-7)" />
    <path
       style="fill:#efdb6e;fill-opacity:1;stroke:#d8bb0e;stroke-width:3;stroke-linecap:butt;stroke-linejoin:miter;stroke-miterlimit:4;stroke-opacity:1;stroke-dasharray:none"
       d="m 497.22223,584.76959 c 0,0 4.80041,0.3084 6.94444,-0.92593 3.58865,-2.06601 5.45615,-5.61972 6.01852,-9.72222 0.66177,-4.82759 -3.70371,-11.11111 -3.70371,-11.11111 0,0 -7.76515,1.10973 -15.74074,2.31482 -2.13625,0.32278 -2.13428,3.52771 -1.38889,5.55555 1.39754,3.80203 6.26471,5.54034 7.87037,9.25926 0.55392,1.28297 1e-5,4.62963 1e-5,4.62963 z"
       id="path3809"
       inkscape:connector-curvature="0"
       sodipodi:nodetypes="csscsssc" />
    <path
       style="fill:#d0cdcd;fill-opacity:1;stroke:#b9a4a4;stroke-width:3;stroke-linecap:butt;stroke-linejoin:miter;stroke-miterlimit:4;stroke-opacity:1;stroke-dasharray:none"
       d="m 234.04255,494.38346 c 0,0 -3.42911,-6.89282 -3.7234,-10.6383 -0.15528,-1.97624 -0.34816,-4.45969 1.06383,-5.85106 1.53641,-1.51398 6.38298,-1.06383 6.38298,-1.06383 0,0 -1.68268,-5.91159 -0.53192,-8.51064 0.91926,-2.07621 3.0886,-3.83068 5.31915,-4.25532 2.36906,-0.451 4.93382,0.75246 6.9149,2.12766 2.38887,1.65827 3.10856,5.02548 5.31914,6.91489 1.68881,1.44345 3.69833,2.64256 5.85107,3.19149 3.95157,1.00763 12.23404,0 12.23404,0 0,0 -3.21812,4.25944 -5.31914,5.85106 -1.58013,1.19702 -3.36528,2.3249 -5.31916,2.65958 -2.81792,0.48269 -5.67273,-1.41008 -8.51064,-1.06383 -2.45139,0.29909 -5.51678,0.62388 -6.91489,2.65958 -1.20454,1.75385 0,6.38297 0,6.38297 l 0,7.97873 -11.17021,0 z"
       id="path3880"
       inkscape:connector-curvature="0"
       sodipodi:nodetypes="csscssssscsssscccc" />
    <g
       style="fill-rule:evenodd;display:inline"
       id="g3012"
       transform="matrix(1.849592,-0.096933,0.09798236,1.8696148,198.53824,499.75951)">
      <g
         transform="matrix(0.74753428,0,0,0.72385166,-2.5423891,25.586875)"
         id="g3032">
        <polygon
           style="fill:#b6ddc7"
           id="polygon10"
           points="25.149,37.4111 24.5367,20.0284 22.6029,14.8469 43.5887,14.4774 41.2678,18.6864 41.6649,39.5793 51.3098,54.3674 14.2043,55.674 "
           class="fil0"
           transform="translate(0,-50)" />
        <path
           style="fill:#37b1a5"
           inkscape:connector-curvature="0"
           id="path12"
           d="M 16.9098,2.965 7.74905,16.6377 c -3.89809,5.98473 -3.38108,13.9945 7.24576,13.1272 2.18672,-0.178986 35.278,0 35.278,0 13.8702,1.18839 12.2444,-7.78684 8.74991,-12.3059 L 49.58855,3.1013 16.90985,2.964939 z"
           class="fil1" />
        <path
           style="fill:#37b1a5"
           inkscape:connector-curvature="0"
           id="path14"
           d="m 52.6465,29.8723 c -0.734224,0 -1.52639,-0.03439 -2.37365,-0.107328 2.87e-4,-1.28e-4 -3.23068,-0.01755 -7.74083,-0.03596 -0.911966,-0.0037 -1.87731,-0.0075 -2.87851,-0.01107 -4.60641,-0.01755 -9.97882,-0.03242 -14.5403,-0.03242 -0.896683,0 -1.76306,4.15e-4 -2.5848,0.002 -0.177295,0 -0.352197,4.15e-4 -0.525089,9.89e-4 -3.70312,0.007 -6.43136,0.02945 -7.00842,0.07648 -0.535585,0.0439 -1.04507,0.06486 -1.53009,0.06486 -2.85104,0 -4.84037,-0.731289 -6.11487,-1.90976 -0.452441,-0.419292 -0.815262,-0.894259 -1.09449,-1.41383 -0.802245,-1.49286 -0.914231,-3.34809 -0.493088,-5.26237 0.122482,-0.5561 0.289312,-1.11715 0.497619,-1.67608 0.372711,-0.998651 0.876264,-1.98936 1.48915,-2.93007 L 20.711284,-3.1379644 46.873295,-3.556422 59.022752,17.458902 c 0.324312,0.419165 0.632448,0.876424 0.913242,1.36045 0.160034,0.274732 0.31072,0.558525 0.451197,0.848252 0.67887,1.40435 1.10796,2.95952 1.06051,4.42417 -0.0085,0.266788 -0.03302,0.530608 -0.07491,0.790313 -0.01643,0.102414 -0.03554,0.204924 -0.05749,0.305743 -0.04645,0.213826 -0.105381,0.424684 -0.177295,0.63047 -0.206328,0.589919 -0.520558,1.14305 -0.962662,1.64067 -0.39412,0.44354 -0.88976,0.842732 -1.49981,1.18245 -0.414475,0.230671 -0.881656,0.434032 -1.40716,0.605935 -0.28223,0.09233 -0.582581,0.175891 -0.899236,0.24924 -1.04494,0.242285 -2.27806,0.375679 -3.72265,0.375679 z"
           class="fil1"
           sodipodi:nodetypes="ccccscccscccccccccccccccccccc" />
        <path
           style="fill:#f4f4eb"
           inkscape:connector-curvature="0"
           id="path16"
           d="M 13.9019,27.7136 C 9.85526,28.090268 6.6481,25.28386 9.25229,20.33004 l 18.5962,-30.0811 -0.136648,-19.9633 c 0.0133,-1.36725 -0.161279,-2.73449 -1.23089,-4.10187 2.34124,1.10355 4.46156,2.28062 4.64849,4.102 l 0.27486,21.0568 c 0.06103,4.72991 -7.28383,14.5054 -10.5155,20.2205 -4.39826,7.77822 -10.2187,13.5472 -6.98689,16.1505 z"
           class="fil2" />
        <path
           style="fill:#446785"
           inkscape:connector-curvature="0"
           id="path20"
           d="m 42.1879,-34.8553 c -0.883666,1.30551 -1.51978,2.59883 -1.74506,3.88619 -0.263278,1.50319 -0.205339,3.01446 -0.1623,4.62456 l -5.12783,-1.6e-4 -0.125609,0 c -0.635958,0.03455 -1.11462,0.569691 -1.07963,1.20552 0.03455,0.63599 0.56899,1.13262 1.20495,1.09762 l 5.16452,-1.27e-4 0.216378,8.78051 -5.38061,0 -0.125609,0 c -0.635958,0.035 -1.11462,0.569564 -1.07963,1.20552 0.03455,0.63583 0.56899,1.13246 1.20495,1.09749 l 5.43427,0 0.05354,2.14113 c 0.0049,0.210859 0.06643,0.416198 0.180262,0.594067 l 4.10215,6.27956 -5.52319,0 -0.126056,0 c -0.635958,0.03439 -1.11459,0.568958 -1.07963,1.20536 0.03513,0.635415 0.569564,1.13204 1.20552,1.09762 l 6.27898,-1.28e-4 c 0.229427,0.003 0.443093,-0.06033 0.630023,-0.180294 l 4.51609,6.92742 -5.30796,0 -0.107902,0 c -0.63583,0.03018 -1.12653,0.570138 -1.09749,1.20568 0.03002,0.63583 0.569979,1.12748 1.20539,1.09705 l 6.28026,-1.27e-4 c 0.16498,0.0026 0.31959,-0.0439 0.466894,-0.106785 l 4.37232,6.69304 -4.98368,0 -0.107902,0 c -0.636372,0.02945 -1.12764,0.569691 -1.09762,1.20511 0.03018,0.636404 0.569979,1.12748 1.20539,1.09762 l 6.27985,-1.6e-4 c 0.06103,9.89e-4 0.120217,-0.0095 0.179688,-0.01796 l 0.09007,0.125896 0.05338,0.09048 c 2.88148,3.62974 3.5108,6.9665 2.73548,9.26594 -0.775732,2.30005 -2.90145,3.83524 -6.47794,3.85065 l -42.0495,-0.03637 -0.07051,0 C 9.1439175,29.767347 7.1506075,28.3786 6.2203575,26.12204 c -0.930662,-2.25557 -0.669394,-5.5402 1.40378,-8.99619 l 18.2802995,-27.4028 c 0.129023,-0.19146 0.19883,-0.417187 0.197841,-0.648018 l -0.125896,-14.1243 c -0.02055,-2.18461 0.12194,-4.05088 -0.251792,-5.97382 -0.245539,-1.27096 -0.890717,-2.5378 -1.78143,-3.81469 l 18.2447,-0.01755 z m 2.30314,-2.30359 -22.9048,0.01857 c -0.463066,0.0035 -0.884783,0.273296 -1.06109,0.701522 -0.177295,0.428098 -0.07348,0.93012 0.251218,1.25934 1.75709,1.72496 2.4054,3.07434 2.69924,4.58857 0.293843,1.5141 0.177869,3.27362 0.19781,5.55918 l 0.126598,13.783 -18.1191,27.133 -0.036403,0.05398 c -2.36134,3.9366 -2.82612,7.96413 -1.54767,11.0655 1.27137,3.08171 4.37816,5.08307 8.36619,4.8762 l 0.07306,0 41.9948,0.03596 c 4.28625,-0.01799 7.53476,-2.14709 8.63678,-5.41574 1.09421,-3.24526 0.1154,-7.33522 -3.04094,-11.3537 l -0.05325,-0.09007 -17.1477,-26.2692 -0.323738,-13.8006 c -0.0011,-0.06697 8.61e-4,-0.114283 -1.28e-4,-0.179847 l 1.28e-4,-0.03596 c -0.02747,-2.17061 -0.148963,-3.87758 0.107774,-5.34379 0.266086,-1.51918 0.884209,-2.86801 2.6093,-4.62456 0.326832,-0.331203 0.414634,-0.829269 0.233224,-1.25931 -0.181251,-0.429789 -0.594896,-0.704936 -1.06134,-0.702128 z"
           class="fil4" />
        <g
           id="_96528888"
           transform="translate(0,-50)">
          <path
             style="fill:#446785"
             inkscape:connector-curvature="0"
             d="m 31.49016,53.723144 c 0.608735,0 1.102379,0.493645 1.102379,1.102379 0,0.608694 -0.493645,1.102379 -1.102379,1.102379 -0.608693,0 -1.102379,-0.493685 -1.102379,-1.102379 0,-0.608735 0.493686,-1.102379 1.102379,-1.102379 z m -2.269524,0.616163 0,3.658069 6.367723,0 0,0.948379 -10.770919,0 c -0.937338,0 -1.67934,0.823849 -1.896755,1.693581 l 0,8.332198 c 0.342601,1.027924 0.940745,1.579406 2.032247,1.761314 l 3.387086,0 0.06772,-3.183874 c 0.169925,-1.69892 1.021274,-2.778441 2.709692,-3.116115 l 8.061265,-0.06777 c 0.917185,-0.229234 1.595372,-0.826723 1.829035,-1.761276 l 0,-8.332236 c -0.301638,-0.904912 -0.788675,-1.391903 -1.693543,-1.693543 l -8.400008,0 c -0.920961,0.307015 -1.388584,0.846507 -1.693543,1.761276 z"
             class="fil4"
             id="_96528984" />
          <path
             style="fill:#d6ad43"
             inkscape:connector-curvature="0"
             d="m 38.721057,73.645642 c 0.608693,0 1.102337,0.493646 1.102337,1.102379 0,0.608694 -0.493645,1.102379 -1.102337,1.102379 -0.608735,0 -1.102379,-0.493685 -1.102379,-1.102379 0,-0.608735 0.493645,-1.102379 1.102379,-1.102379 z m 3.099571,-11.583637 c -0.169884,1.698921 -1.021274,2.778441 -2.709692,3.116116 l -8.061265,0.06777 c -0.917186,0.229235 -1.595372,0.826682 -1.829035,1.761276 l 0,8.332236 c 0.301638,0.904913 0.788633,1.391903 1.693543,1.693543 l 8.400008,0 c 0.920961,-0.307015 1.388583,-0.846506 1.693543,-1.761314 l 0,-3.658031 -6.367723,0 0,-0.948379 10.770919,0 c 0.937297,0 1.67934,-0.823849 1.896793,-1.693581 l 0,-8.332198 c -0.342641,-1.027924 -0.940745,-1.579406 -2.032246,-1.761314 l -3.387086,0 -0.06777,3.183874 z"
             class="fil3"
             id="_96528912" />
        </g>
      </g>
    </g>
    <path
       style="fill:#99070f;fill-opacity:1;stroke:#99070f;stroke-width:1px;stroke-linecap:butt;stroke-linejoin:miter;stroke-opacity:1"
       d="m 350.16831,493.44693 -0.75225,12.03586 18.05379,2.25672 -9.77913,-5.64181 -4.51345,-6.01793 z"
       id="path3872"
       inkscape:connector-curvature="0" />
    <path
       style="fill:#99070f;fill-opacity:1;stroke:#99070f;stroke-width:1px;stroke-linecap:butt;stroke-linejoin:miter;stroke-opacity:1"
       d="m 349.79218,510.74848 -22.94335,79.36145 19.55827,15.04483 -6.39405,-42.87776 7.89853,-29.71353 13.91646,-22.19111 z"
       id="path3874"
       inkscape:connector-curvature="0" />
    <g
       id="g3844"
       style="fill:#c6c6c6;fill-opacity:1"
       transform="translate(298.16112,-3.9404553)">
      <path
         inkscape:connector-curvature="0"
         id="path3830"
         d="m 53.27284,604.68132 c -1.489054,-0.55154 -2.955969,-1.96121 -3.800485,-3.65219 -0.806964,-1.61579 -1.867451,-5.73282 -1.873762,-7.27434 l -0.0047,-1.14342 -2.580321,0 c -3.164297,0 -5.306699,-0.7226 -7.272385,-2.45287 -2.602015,-2.29038 -3.473781,-5.23012 -2.600735,-8.77011 0.282861,-1.14693 0.757669,-1.82422 2.392516,-3.41283 1.121791,-1.09007 2.986847,-2.5762 4.144568,-3.30252 1.157721,-0.72632 3.163601,-1.98778 4.457512,-2.80325 l 2.352565,-1.48267 -0.610877,-1.77044 c -0.981842,-2.84556 -1.5866,-6.97712 -1.351568,-9.23356 0.28604,-2.74615 1.25786,-6.81758 1.952138,-8.17848 0.85717,-1.68019 2.640945,-2.574 5.064381,-2.53765 2.960348,0.0444 5.103893,0.98474 7.492778,3.28693 1.103489,1.06344 2.096735,1.93353 2.207212,1.93353 0.110477,0 0.991362,-0.59841 1.957521,-1.3298 2.291931,-1.735 3.207825,-2.18157 5.402011,-2.63388 1.839989,-0.37931 3.949504,-0.26767 6.043956,0.31983 2.875229,0.80652 4.57524,3.79827 4.617293,8.12569 0.02732,2.81247 0.03795,2.82404 2.600317,2.8319 2.082106,0.006 6.24172,1.39179 7.502519,2.49879 1.590217,1.39623 2.015031,2.44114 2.069875,5.09124 0.05665,2.73736 -0.205617,3.37333 -2.841378,6.88999 -2.126229,2.83684 -5.190731,5.39297 -8.225859,6.86127 -1.574686,0.76178 -2.110799,1.16938 -1.999472,1.52014 1.514331,4.77123 2.002231,12.65638 0.986396,15.94152 -1.089328,3.52282 -2.986297,4.67843 -7.275837,4.43232 -2.711559,-0.15557 -4.878177,-1.0702 -7.037389,-2.97082 l -1.364912,-1.20144 -2.562016,1.66761 c -4.245998,2.76372 -7.414028,3.64876 -9.841881,2.74951 l 0,0 z m 4.622751,-3.19426 c 4.207139,-1.45322 8.240985,-5.5593 10.076179,-10.25661 0.483628,-1.23788 0.52724,-1.63162 0.226318,-2.04315 -0.344344,-0.47092 -0.568586,-0.44652 -2.941877,0.32015 -1.413015,0.45646 -2.706329,0.91546 -2.874031,1.01999 -0.719329,0.44839 -7.928663,2.0724 -10.055291,2.26511 -2.300731,0.20849 -2.321562,0.21815 -2.166344,1.00563 0.0862,0.43732 0.246978,1.34397 0.357287,2.01477 0.110309,0.67081 0.629541,2.0986 1.153851,3.17288 1.484735,3.04212 2.951499,3.63158 6.223908,2.50123 z m 19.307461,-0.91859 c 1.238982,-1.51469 1.607847,-7.85997 0.719579,-12.37834 -0.296717,-1.50931 -0.571294,-2.78533 -0.610167,-2.83559 -0.03888,-0.0503 -1.101601,0.41873 -2.361614,1.0422 -2.044253,1.01153 -2.308485,1.24176 -2.453956,2.13818 -0.135189,0.83308 -2.736976,5.72681 -4.380022,8.23844 -0.401982,0.61449 -0.3224,0.74801 1.272065,2.13439 2.692605,2.3412 6.581447,3.16769 7.814115,1.66072 z M 47.16474,587.58031 c 0.410683,-2.24123 1.524169,-6.2081 2.287787,-8.15041 0.542477,-1.37982 0.544576,-1.53177 0.04845,-3.50649 -0.285231,-1.1353 -0.553222,-2.11798 -0.595535,-2.18375 -0.04231,-0.0658 -1.188187,0.60998 -2.546385,1.50167 -2.746272,1.80298 -5.430039,4.56683 -6.419775,6.61135 -0.873605,1.80463 -0.707411,4.30892 0.362007,5.45487 1.282491,1.37426 3.299233,2.24937 5.004718,2.17166 l 1.523501,-0.0694 0.335235,-1.82948 z m 9.271641,1.25055 c 4.987786,-0.54035 10.991809,-2.17564 15.55055,-4.23546 1.090063,-0.49253 2.697734,-1.21344 3.572602,-1.60203 l 1.590668,-0.70652 -0.460634,-1.62205 c -0.624215,-2.19805 -1.722642,-5.21258 -2.035384,-5.58591 -0.140483,-0.16771 -0.84678,-1.334 -1.569542,-2.59176 -4.80297,-8.35819 -6.017715,-10.31964 -7.472716,-12.06616 -0.897986,-1.07791 -1.722568,-1.95983 -1.832407,-1.95983 -0.109838,0 -1.24577,1.40641 -2.524293,3.12536 -4.009845,5.39115 -9.678811,18.6535 -10.133489,23.70696 -0.113165,1.25777 -0.278069,2.66418 -0.366453,3.12536 -0.149474,0.77994 -0.08979,0.83804 0.854496,0.83173 0.558356,-0.004 2.730327,-0.19259 4.826602,-0.41969 z m 25.405275,-9.60418 c 0.701025,-0.48579 2.406829,-2.0472 3.790675,-3.4698 2.807542,-2.88617 4.039539,-5.13469 4.039539,-7.37257 0,-1.16603 -0.141638,-1.45796 -1.084349,-2.23503 -1.700995,-1.4021 -4.197286,-1.92091 -6.768392,-1.40669 -0.87499,0.175 -0.930487,0.28074 -1.24023,2.36308 -0.17834,1.19893 -0.410769,2.97001 -0.51651,3.93572 -0.10574,0.96572 -0.449118,2.65405 -0.763059,3.75184 -0.566238,1.98003 -0.565723,2.00927 0.06458,3.65636 0.34946,0.9132 0.763132,1.66036 0.919272,1.66036 0.156136,0 0.857451,-0.39747 1.558473,-0.88327 z m -4.638723,-11.79117 c 0.442462,-1.74956 0.733861,-3.18103 0.647552,-3.18103 -0.205599,0 -4.468639,1.26287 -4.567391,1.35303 -0.04177,0.0381 0.232651,0.82068 0.609825,1.73898 0.67716,1.64868 2.071376,3.66076 2.357936,3.40288 0.08118,-0.0731 0.509616,-1.56429 0.952078,-3.31386 l 0,0 z m -21.20481,-3.3242 c 0.849021,-1.63959 2.308158,-4.0098 3.242527,-5.26713 1.673242,-2.25159 1.69157,-2.29874 1.215795,-3.12773 -1.210805,-2.10971 -5.74148,-3.97658 -7.922691,-3.26455 -2.234101,0.72928 -3.528457,4.91988 -2.83159,9.16753 0.595589,3.63033 0.944451,4.4633 2.272094,5.42504 1.076235,0.77962 1.279359,0.83049 1.844794,0.462 0.349468,-0.22775 1.33005,-1.75557 2.179071,-3.39516 l 0,0 z m 19.708981,-2.6212 c 0.88869,-0.17879 1.768357,-0.37303 1.954817,-0.43164 0.85192,-0.26778 -0.8232,-6.97474 -1.921779,-7.69456 -1.163886,-0.76261 -4.19242,-0.40787 -6.527179,0.76453 -3.387614,1.7011 -3.320418,1.38967 -1.025123,4.75118 l 2.004448,2.93556 1.949508,0 c 1.072229,0 2.676619,-0.14628 3.565308,-0.32507 l 0,0 z"
         style="fill:#c6c6c6;fill-opacity:1;stroke:none" />
      <path
         inkscape:connector-curvature="0"
         id="path3834"
         d="m 62.938791,579.98657 c -1.565896,-0.70801 -1.999801,-1.65038 -1.755233,-3.81208 0.283237,-2.50349 1.128117,-3.38245 3.251292,-3.38245 2.50435,0 4.198041,1.69199 4.198041,4.19382 0,2.44477 -3.197214,4.12965 -5.6941,3.00071 z"
         style="fill:#c6c6c6;fill-opacity:1;fill-rule:nonzero;stroke:none" />
      <path
         inkscape:connector-curvature="0"
         id="path3836"
         d="m 55.722432,587.62726 c -1.525924,-1.85154 -1.881334,-2.38939 -2.963126,-4.48412 l -0.680201,-1.3171 1.021451,-2.84589 c 0.561797,-1.56523 1.053983,-2.92469 1.093745,-3.02101 0.08699,-0.21074 -0.02361,-0.44381 0.917457,1.93326 1.363887,3.44507 2.09381,4.64427 5.422079,8.90798 0.406286,0.52047 0.724528,0.95685 0.707205,0.96972 -0.190824,0.14181 -1.822633,0.4515 -3.086443,0.58577 -0.87232,0.0927 -1.609982,0.16859 -1.63925,0.16872 -0.02927,8e-5 -0.386081,-0.40368 -0.792917,-0.89733 l 0,0 z"
         style="fill:#c6c6c6;fill-opacity:1;fill-rule:nonzero;stroke:none" />
      <path
         inkscape:connector-curvature="0"
         id="path3838"
         d="m 56.276678,571.19539 c 0.01605,-0.0434 0.600513,-1.29944 1.298799,-2.7911 l 1.26961,-2.71212 4.2784,-1.16531 c 4.083461,-1.11221 4.282955,-1.15773 4.378375,-0.9989 0.05499,0.0915 0.554744,0.97694 1.11057,1.96757 l 1.010594,1.80116 -2.893256,0.82245 c -1.59129,0.45235 -4.581335,1.34733 -6.644544,1.98884 -2.063209,0.64152 -3.77074,1.16639 -3.794513,1.16639 -0.02377,0 -0.03009,-0.0355 -0.01403,-0.079 z"
         style="fill:#c6c6c6;fill-opacity:1;fill-rule:nonzero;stroke:none" />
      <path
         inkscape:connector-curvature="0"
         id="path3840"
         d="m 72.031552,583.33654 c 1.662,-4.64212 2.159688,-5.97499 2.43966,-6.53371 l 0.323171,-0.64491 0.244425,0.55735 c 0.452054,1.0308 0.942887,2.53125 1.404803,4.29442 l 0.290825,1.1101 -2.475297,1.10094 c -1.361414,0.60551 -2.498919,1.10093 -2.52779,1.10093 -0.02887,0 0.106221,-0.4433 0.300203,-0.98512 z"
         style="fill:#c6c6c6;fill-opacity:1;fill-rule:nonzero;stroke:none" />
      <path
         inkscape:connector-curvature="0"
         id="path3842"
         d="m 60.99063,594.95477 c -1.179947,-1.57606 -2.156267,-2.90935 -2.169598,-2.96287 -0.01387,-0.0557 0.3099,-0.18289 0.756723,-0.29735 0.737399,-0.18889 2.868121,-0.81678 3.173776,-0.93526 0.10755,-0.0417 0.476966,0.41576 1.559489,1.93111 0.780205,1.09216 1.399452,2.03552 1.376103,2.09637 -0.08657,0.2256 -1.196339,1.59849 -1.862728,2.30437 l -0.688406,0.7292 -2.145359,-2.86557 z"
         style="fill:#c6c6c6;fill-opacity:1;fill-rule:nonzero;stroke:none" />
    </g>
    <path
       style="fill:#a2a5a7;fill-opacity:1;fill-rule:nonzero;stroke:#929292;stroke-width:2;stroke-linecap:round;stroke-linejoin:round;stroke-miterlimit:4;stroke-opacity:1;stroke-dasharray:none"
       d="m 495.58725,535.73507 c -3.103,-1.37485 -9.07525,-3.54166 -13.10914,-5.30273 -4.0339,-1.76107 -7.99924,-2.83392 -7.99924,-3.35928 0,-1.6168 4.79718,-4.4368 7.23555,-3.78563 1.8548,0.49533 2.54358,-0.4632 2.54358,-1.98495 0,-1.15846 1.33706,-1.8476 1.83354,-2.34408 1.45125,-1.45125 6.44236,-1.0457 9.72074,0.78985 2.89059,1.61843 3.00593,1.82431 2.63389,4.70151 -0.35107,2.71505 -0.10438,3.30289 2.52542,6.01793 2.35964,2.43613 2.83655,3.40279 2.50508,5.07763 -0.22518,1.13777 -0.66011,2.9896 -1.12904,2.97748 -0.86788,0.91875 -3.65738,-1.41287 -6.76038,-2.78773 z m -1.98773,-11.97325 c -0.10036,-1.10466 0.15015,-0.72216 -0.42672,-1.57608 -0.80807,-1.19617 -1.24754,-1.46416 -2.64209,-1.47781 -1.98599,-0.0194 -2.68161,1.33037 -2.81917,2.35005 -0.16747,1.24135 1.41151,3.20344 2.64871,3.81896 1.51687,-0.0149 3.39509,-1.40001 3.23927,-3.11512 z"
       id="path3909"
       inkscape:connector-curvature="0"
       sodipodi:nodetypes="sssssssssscssssscs" />
    <path
       style="fill:#abc8f2;fill-opacity:1;stroke:#abc8f2;stroke-width:3;stroke-linecap:butt;stroke-linejoin:miter;stroke-miterlimit:4;stroke-opacity:1;stroke-dasharray:none"
       d="m 470.2584,533.8097 -1.10947,4.7227 21.54256,7.18085 1.64137,-4.65817 z"
       id="path3919"
       inkscape:connector-curvature="0"
       sodipodi:nodetypes="ccccc" />
    <path
       style="fill:#abc8f2;fill-opacity:1;stroke:#abc8f2;stroke-width:3;stroke-linecap:butt;stroke-linejoin:miter;stroke-miterlimit:4;stroke-opacity:1;stroke-dasharray:none"
       d="m 469.35036,547.43805 -1.53121,4.39222 23.67021,8.77659 1.90733,-5.65747 z"
       id="path3921"
       inkscape:connector-curvature="0"
       sodipodi:nodetypes="ccccc" />
    <path
       style="fill:#abc8f2;fill-opacity:1;stroke:#abc8f2;stroke-width:3;stroke-linecap:butt;stroke-linejoin:miter;stroke-miterlimit:4;stroke-opacity:1;stroke-dasharray:none"
       d="m 462.96739,558.40684 -2.06313,5.12556 21.54255,7.97872 0.77894,-4.32768 z"
       id="path3923"
       inkscape:connector-curvature="0"
       sodipodi:nodetypes="ccccc" />
    <path
       style="fill:#abc8f2;fill-opacity:1;stroke:#abc8f2;stroke-width:3;stroke-linecap:butt;stroke-linejoin:miter;stroke-miterlimit:4;stroke-opacity:1;stroke-dasharray:none"
       d="m 463.4993,573.54752 -1.26526,4.8785 21.54256,8.24468 1.64137,-5.67637 z"
       id="path3925"
       inkscape:connector-curvature="0"
       sodipodi:nodetypes="ccccc" />
  </g>
  <g
     inkscape:groupmode="layer"
     id="layer3"
     inkscape:label="delnai"
     transform="translate(-202.6797,-292.44655)">
    <path
       style="fill:#f1cd01;fill-opacity:1;stroke:#d8bb0e;stroke-width:3;stroke-linecap:butt;stroke-linejoin:miter;stroke-miterlimit:4;stroke-opacity:1;stroke-dasharray:none"
       d="m 228.24074,507.91774 c -12.2034,6.73291 -10.52762,23.21231 -9.25926,22.68518 8.47032,-3.52023 15.35654,0.32323 20.83333,-4.16666 1.55146,-1.27189 3.93929,-1.60501 2.31482,-5.55556 -3.54375,-8.61804 -13.88889,-13.42592 -13.88889,-13.42592"
       id="path3803"
       inkscape:connector-curvature="0"
       sodipodi:nodetypes="csssc" />
  </g>
  <g
     inkscape:groupmode="layer"
     id="layer2"
     inkscape:label="pylab"
     style="display:inline"
     transform="translate(-202.6797,-292.44655)" />
</svg>
