<?xml version="1.0" encoding="UTF-8"?>
<!DOCTYPE svg PUBLIC "-//W3C//DTD SVG 1.1//EN" "http://www.w3.org/Graphics/SVG/1.1/DTD/svg11.dtd">
<!-- Creator: CorelDRAW -->
<svg xmlns="http://www.w3.org/2000/svg" xml:space="preserve" width="67px" height="100px" style="shape-rendering:geometricPrecision; text-rendering:geometricPrecision; image-rendering:optimizeQuality; fill-rule:evenodd; clip-rule:evenodd"
viewBox="0 0 67 94.7571"
 xmlns:xlink="http://www.w3.org/1999/xlink">
 <defs>
  <style type="text/css">
   <![CDATA[
    .fil1 {fill:#37B1A5}
    .fil0 {fill:#B6DDC7}
    .fil2 {fill:#F4F4EB}
    .fil4 {fill:#446785}
    .fil3 {fill:#D6AD43}
    .fil5 {fill:#446785;fill-rule:nonzero}
   ]]>
  </style>
 </defs>
 <g id="Слой_x0020_1">
  <metadata id="CorelCorpID_0Corel-Layer"/>
  <polygon class="fil0" points="22.6029,14.8469 43.5887,14.4774 41.2678,18.6864 41.6649,39.5793 51.3098,54.3674 14.2043,55.674 25.149,37.4111 24.5367,20.0284 "/>
  <path class="fil1" d="M16.9098 52.965l-9.16075 13.6727c-3.89809,5.98473 -3.38108,13.9945 7.24576,13.1272 2.18672,-0.178986 35.278,0 35.278,0 13.8702,1.18839 12.2444,-7.78684 8.74991,-12.3059l-9.43417 -14.3577 -32.6787 -0.136361z"/>
  <path class="fil1" d="M52.6465 79.8723c-0.734224,0 -1.52639,-0.0343933 -2.37365,-0.107328 0.000287143,-0.000127619 -3.23068,-0.0175476 -7.74083,-0.0359567 -0.911966,-0.00370095 -1.87731,-0.00752952 -2.87851,-0.011071 -4.60641,-0.0175476 -9.97882,-0.0324152 -14.5403,-0.0324152 -0.896683,0 -1.76306,0.000414762 -2.5848,0.0019781 -0.177295,0 -0.352197,0.000414762 -0.525089,0.000989048 -3.70312,0.00695524 -6.43136,0.0294481 -7.00842,0.0764757 -0.535585,0.043901 -1.04507,0.0648624 -1.53009,0.0648624 -2.85104,0 -4.84037,-0.731289 -6.11487,-1.90976 -0.452441,-0.419292 -0.815262,-0.894259 -1.09449,-1.41383 -0.802245,-1.49286 -0.914231,-3.34809 -0.493088,-5.26237 0.122482,-0.5561 0.289312,-1.11715 0.497619,-1.67608 0.372711,-0.998651 0.876264,-1.98936 1.48915,-2.93007l9.16075 -13.6727 32.6787 0.136361 9.43417 14.3575c0.324312,0.419165 0.632448,0.876424 0.913242,1.36045 0.160034,0.274732 0.31072,0.558525 0.451197,0.848252 0.67887,1.40435 1.10796,2.95952 1.06051,4.42417 -0.00851857,0.266788 -0.0330214,0.530608 -0.0749124,0.790313 -0.016431,0.102414 -0.0355419,0.204924 -0.0574924,0.305743 -0.0464533,0.213826 -0.105381,0.424684 -0.177295,0.63047 -0.206328,0.589919 -0.520558,1.14305 -0.962662,1.64067 -0.39412,0.44354 -0.88976,0.842732 -1.49981,1.18245 -0.414475,0.230671 -0.881656,0.434032 -1.40716,0.605935 -0.28223,0.0923324 -0.582581,0.175891 -0.899236,0.24924 -1.04494,0.242285 -2.27806,0.375679 -3.72265,0.375679z"/>
  <path class="fil2" d="M13.9019 77.7136c-4.04664,0.376668 -7.2538,-2.42974 -4.64961,-7.38356l18.5962 -30.0811 -0.136648 -19.9633c0.0133043,-1.36725 -0.161279,-2.73449 -1.23089,-4.10187 2.34124,1.10355 4.46156,2.28062 4.64849,4.102l0.27486 21.0568c0.0610338,4.72991 -7.28383,14.5054 -10.5155,20.2205 -4.39826,7.77822 -10.2187,13.5472 -6.98689,16.1505z"/>
  <path class="fil3" d="M54.5258 77.4634c4.04536,0.375551 5.61256,-2.56667 3.0082,-7.52049l-18.5953 -30.081 0.136074 -19.9627c-0.0121876,-1.36741 0.161151,-2.73465 1.23172,-4.10187 -2.34235,1.10355 -2.95837,2.28046 -3.1453,4.10187l-0.136648 20.92c-0.0304371,4.73033 7.82949,14.0953 11.0607,19.8104 4.39826,7.77819 9.67209,14.2307 6.44055,16.8339z"/>
  <path class="fil4" d="M42.1879 15.1447c-0.883666,1.30551 -1.51978,2.59883 -1.74506,3.88619 -0.263278,1.50319 -0.205339,3.01446 -0.1623,4.62456l-5.12783 -0.000159524 -0.125609 0c-0.635958,0.0345529 -1.11462,0.569691 -1.07963,1.20552 0.0345529,0.63599 0.56899,1.13262 1.20495,1.09762l5.16452 -0.000127619 0.216378 8.78051 -5.38061 0 -0.125609 0c-0.635958,0.0349995 -1.11462,0.569564 -1.07963,1.20552 0.0345529,0.63583 0.56899,1.13246 1.20495,1.09749l5.43427 0 0.0535362 2.14113c0.00494524,0.210859 0.0664257,0.416198 0.180262,0.594067l4.10215 6.27956 -5.52319 0 -0.126056 0c-0.635958,0.0343933 -1.11459,0.568958 -1.07963,1.20536 0.0351271,0.635415 0.569564,1.13204 1.20552,1.09762l6.27898 -0.000127619c0.229427,0.00296714 0.443093,-0.0603319 0.630023,-0.180294l4.51609 6.92742 -5.30796 0 -0.107902 0c-0.63583,0.0301819 -1.12653,0.570138 -1.09749,1.20568 0.0300224,0.63583 0.569979,1.12748 1.20539,1.09705l6.28026 -0.000127619c0.16498,0.00255238 0.31959,-0.043901 0.466894,-0.106785l4.37232 6.69304 -4.98368 0 -0.107902 0c-0.636372,0.0294481 -1.12764,0.569691 -1.09762,1.20511 0.0301819,0.636404 0.569979,1.12748 1.20539,1.09762l6.27985 -0.000159524c0.0610338,0.000989048 0.120217,-0.00947571 0.179688,-0.0179624l0.0900671 0.125896 0.0533767 0.0904819c2.88148,3.62974 3.5108,6.9665 2.73548,9.26594 -0.775732,2.30005 -2.90145,3.83524 -6.47794,3.85065l-42.0495 -0.0363714 -0.0705095 0c-3.24867,0.190727 -5.24198,-1.19802 -6.17223,-3.45458 -0.930662,-2.25557 -0.669394,-5.5402 1.40378,-8.99619l18.2803 -27.4028c0.129023,-0.19146 0.19883,-0.417187 0.197841,-0.648018l-0.125896 -14.1243c-0.0205467,-2.18461 0.12194,-4.05088 -0.251792,-5.97382 -0.245539,-1.27096 -0.890717,-2.5378 -1.78143,-3.81469l18.2447 -0.0175476zm2.30314 -2.30359l-22.9048 0.0185686c-0.463066,0.00354143 -0.884783,0.273296 -1.06109,0.701522 -0.177295,0.428098 -0.0734767,0.93012 0.251218,1.25934 1.75709,1.72496 2.4054,3.07434 2.69924,4.58857 0.293843,1.5141 0.177869,3.27362 0.19781,5.55918l0.126598 13.783 -18.1191 27.133 -0.0364033 0.0539829c-2.36134,3.9366 -2.82612,7.96413 -1.54767,11.0655 1.27137,3.08171 4.37816,5.08307 8.36619,4.8762l0.0730619 0 41.9948 0.0359567c4.28625,-0.0179943 7.53476,-2.14709 8.63678,-5.41574 1.09421,-3.24526 0.1154,-7.33522 -3.04094,-11.3537l-0.053249 -0.0900671 -17.1477 -26.2692 -0.323738 -13.8006c-0.00111667,-0.0669681 0.000861429,-0.114283 -0.000127619,-0.179847l0.000127619 -0.0359567c-0.02747,-2.17061 -0.148963,-3.87758 0.107774,-5.34379 0.266086,-1.51918 0.884209,-2.86801 2.6093,-4.62456 0.326832,-0.331203 0.414634,-0.829269 0.233224,-1.25931 -0.181251,-0.429789 -0.594896,-0.704936 -1.06134,-0.702128z"/>
  <g id="_96528888">
   <path id="_96528984" class="fil4" d="M30.668 57.8042c0.47318,0 0.856898,0.383719 0.856898,0.856898 0,0.473148 -0.383719,0.856898 -0.856898,0.856898 -0.473148,0 -0.856898,-0.38375 -0.856898,-0.856898 0,-0.47318 0.38375,-0.856898 0.856898,-0.856898zm-1.76414 0.478954l0 2.84348 4.94974 0 0 0.737191 -8.37242 0c-0.728609,0 -1.30538,0.640392 -1.47438,1.31645l0 6.47676c0.266309,0.799023 0.731257,1.2277 1.5797,1.3691l2.63284 0 0.0526429 -2.47488c0.132086,-1.3206 0.793854,-2.15973 2.10629,-2.42221l6.26616 -0.0526748c0.712944,-0.178188 1.24011,-0.642626 1.42174,-1.36907l0 -6.47679c-0.234468,-0.703404 -0.61305,-1.08195 -1.31642,-1.31642l-6.52947 0c-0.715879,0.238648 -1.07937,0.658004 -1.31642,1.36907z"/>
   <path id="_96528912" class="fil3" d="M36.2887 73.2903c0.473148,0 0.856866,0.383719 0.856866,0.856898 0,0.473148 -0.383719,0.856898 -0.856866,0.856898 -0.47318,0 -0.856898,-0.38375 -0.856898,-0.856898 0,-0.47318 0.383719,-0.856898 0.856898,-0.856898zm2.40935 -9.00416c-0.132054,1.3206 -0.793854,2.15973 -2.10629,2.42221l-6.26616 0.0526748c-0.712944,0.178188 -1.24011,0.642594 -1.42174,1.36907l0 6.47679c0.234468,0.703404 0.613018,1.08195 1.31642,1.31642l6.52947 0c0.715879,-0.238648 1.07937,-0.658004 1.31642,-1.3691l0 -2.84345 -4.94974 0 0 -0.737191 8.37242 0c0.728577,0 1.30538,-0.640392 1.47441,-1.31645l0 -6.47676c-0.266341,-0.799023 -0.731257,-1.2277 -1.5797,-1.3691l-2.63284 0 -0.0526748 2.47488z"/>
  </g>
  <path class="fil5" d="M17.6103 62.2865c0.299554,0.185048 0.498544,0.414475 0.596045,0.688345 0.107455,0.295055 0.0714348,0.58826 -0.108955,0.87955 -0.173881,0.280315 -0.44906,0.44035 -0.826493,0.481953l0.8107 0.502181 0.186898 -0.302298 0.193311 0.119962 -0.518006 0.835426 -0.193279 -0.119962 0.192513 -0.310529 -2.34414 -1.45256 -0.192481 0.310561 -0.196948 -0.12277 0.322685 -0.520303 0.432373 0.268734c-0.180709,-0.351654 -0.173881,-0.685538 0.02144,-1.00155 0.18039,-0.290397 0.428928,-0.453367 0.745582,-0.488972 0.286281,-0.031171 0.579199,0.04623 0.878753,0.232235zm-0.14322 0.229874c-0.246432,-0.152473 -0.480486,-0.222121 -0.702256,-0.207987 -0.25125,0.0185367 -0.450782,0.146921 -0.598661,0.385059 -0.148804,0.24002 -0.175221,0.476242 -0.077401,0.706882 0.0823781,0.198288 0.249495,0.37603 0.501415,0.531342 0.243689,0.151548 0.477774,0.217527 0.703277,0.197905 0.255844,-0.0194619 0.456302,-0.145039 0.600448,-0.37772 0.145071,-0.235425 0.169638,-0.467979 0.0727429,-0.698587 -0.0869405,-0.204797 -0.253132,-0.383463 -0.499565,-0.536893z"/>
  <polygon id="1" class="fil5" points="18.0477,59.6212 17.8868,59.8813 19.8532,62.3726 19.4729,62.9863 19.2796,62.8664 19.5642,62.4074 19.0726,61.7851 16.9392,61.4102 16.7727,61.6785 16.5794,61.5595 17.1002,60.7195 17.2935,60.8386 17.0991,61.1518 18.8182,61.4531 17.751,60.1012 17.5455,60.4318 17.3522,60.3128 17.8544,59.5021 "/>
  <polygon id="12" class="fil5" points="20.3981,59.9441 19.8773,60.7841 19.684,60.6641 19.8719,60.3619 17.3445,58.7958 17.1567,59.0981 16.9634,58.9782 17.2964,58.4405 20.017,60.1264 20.2048,59.8241 "/>
  <path id="123" class="fil5" d="M21.7402 57.7615l-0.343136 0.554186 -0.289472 -0.179464c0.0822824,0.349134 0.0397533,0.65794 -0.126726,0.92728 -0.121812,0.195991 -0.279932,0.317293 -0.476179,0.364735 -0.195321,0.0465171 -0.391918,0.0102414 -0.587941,-0.111603 -0.196023,-0.12178 -0.308966,-0.289982 -0.337871,-0.506329 -0.0253005,-0.201606 0.0238648,-0.403627 0.148517,-0.60517 0.126439,-0.204286 0.323642,-0.39061 0.590621,-0.558078l-0.247358 -0.15343c-0.202436,-0.125545 -0.375966,-0.177263 -0.52327,-0.15528 -0.146411,0.021089 -0.280507,0.129661 -0.402319,0.325684 -0.173881,0.280283 -0.184027,0.556196 -0.0313305,0.829492l-0.181379 0.160672c-0.224929,-0.337265 -0.214177,-0.704202 0.0322557,-1.10177 0.176689,-0.285803 0.369074,-0.445486 0.576264,-0.479975 0.193375,-0.0308838 0.435723,0.0433905 0.727046,0.223812l1.07905 0.668628 0.199979 -0.323355 0.193247 0.119962zm-0.817623 0.260311l-0.411316 -0.255685c-0.28625,0.168234 -0.484282,0.33985 -0.59311,0.516634 -0.0957781,0.153877 -0.130778,0.30268 -0.105988,0.448166 0.0238329,0.14456 0.112273,0.263852 0.263406,0.357748 0.142933,0.0883443 0.280698,0.115974 0.413358,0.0827929 0.133617,-0.0340424 0.244614,-0.122514 0.332958,-0.265416 0.133904,-0.215293 0.167149,-0.510317 0.100691,-0.88424z"/>
  <path id="1234" class="fil5" d="M22.1165 54.8999c0.299554,0.18508 0.498544,0.413613 0.597927,0.684708 0.10838,0.295087 0.0714667,0.58826 -0.108955,0.87955 -0.173881,0.280315 -0.449091,0.44035 -0.827418,0.481985l0.323387 0.199915 -0.33015 0.533129 -0.193279 -0.119962 0.192513 -0.310529 -2.52734 -1.56601 -0.192513 0.310529 -0.193311 -0.11993 0.322717 -0.520335 1.29249 0.801607c-0.181602,-0.351686 -0.173817,-0.686431 0.0233224,-1.0034 0.179496,-0.290365 0.427077,-0.451516 0.740956,-0.483453 0.287207,-0.031171 0.580092,0.04623 0.879646,0.232203zm-0.143189 0.229906c-0.250101,-0.154355 -0.484187,-0.223078 -0.702288,-0.207987 -0.250293,0.0157929 -0.448932,0.142327 -0.596779,0.380464 -0.148772,0.240945 -0.175221,0.477136 -0.077401,0.707807 0.0823462,0.19832 0.249495,0.37603 0.501415,0.531342 0.243657,0.15158 0.477774,0.217527 0.703277,0.197873 0.255812,-0.01943 0.45627,-0.145932 0.600416,-0.377689 0.146953,-0.238169 0.17152,-0.471648 0.0727748,-0.699512 -0.0851219,-0.200202 -0.252271,-0.377019 -0.501415,-0.532299z"/>
  <polygon id="12345" class="fil5" points="23.5831,54.718 23.4353,54.9571 23.0157,54.6967 23.1636,54.4576 "/>
  <polygon id="123456" class="fil5" points="24.3812,53.4148 23.8605,54.2548 23.6672,54.1348 23.855,53.8326 21.3277,52.2665 21.1399,52.5688 20.9466,52.4489 21.2795,51.9112 24.0001,53.5971 24.188,53.2948 "/>
  <path id="1234567" class="fil5" d="M25.0833 52.3031c-0.0245986,0.101968 -0.0591833,0.188174 -0.103882,0.26146 -0.105988,0.171329 -0.221579,0.260694 -0.346709,0.268096 -0.103084,0.010369 -0.245316,-0.041189 -0.42762,-0.153717l-1.40611 -0.872244 -0.184122 0.297703 -0.193279 -0.119037 0.184122 -0.297735 -0.487313 -0.302202 -0.0216633 -0.339562 0.654973 0.406371 0.265958 -0.428704 0.193279 0.119037 -0.265958 0.428672 1.39331 0.863917c0.112656,0.0697438 0.197012,0.10803 0.253994,0.11575 0.0873233,0.00886952 0.161215,-0.0347762 0.219792,-0.130044 0.0381581,-0.0622781 0.06901,-0.138435 0.090769,-0.229363l0.180453 0.111603z"/>
  <polygon id="12345678" class="fil5" points="25.4768,51.6139 25.3289,51.853 24.9094,51.5926 25.0572,51.3535 "/>
 </g>
</svg>
