<?xml version="1.0" encoding="UTF-8" standalone="no"?>
<!-- Created with Inkscape (http://www.inkscape.org/) --> 

<svg
   xmlns:dc="http://purl.org/dc/elements/1.1/"
   xmlns:cc="http://creativecommons.org/ns#"
   xmlns:rdf="http://www.w3.org/1999/02/22-rdf-syntax-ns#"
   xmlns:svg="http://www.w3.org/2000/svg"
   xmlns="http://www.w3.org/2000/svg"
   xmlns:sodipodi="http://sodipodi.sourceforge.net/DTD/sodipodi-0.dtd"
   xmlns:inkscape="http://www.inkscape.org/namespaces/inkscape"
   xml:space="preserve"
   width="45"
   height="50"
   style="fill-rule:evenodd"
   viewBox="0 0 45 47.37855"
   id="svg2"
   version="1.1"
   inkscape:version="0.48.4 r9939"
   sodipodi:docname="logo.svg"><metadata
     id="metadata37"><rdf:RDF><cc:Work
         rdf:about=""><dc:format>image/svg+xml</dc:format><dc:type
           rdf:resource="http://purl.org/dc/dcmitype/StillImage" /></cc:Work></rdf:RDF></metadata><sodipodi:namedview
     pagecolor="#ffffff"
     bordercolor="#666666"
     borderopacity="1"
     objecttolerance="10"
     gridtolerance="10"
     guidetolerance="10"
     inkscape:pageopacity="0"
     inkscape:pageshadow="2"
     inkscape:window-width="1280"
     inkscape:window-height="958"
     id="namedview35"
     showgrid="false"
     inkscape:zoom="6.675088"
     inkscape:cx="37.87376"
     inkscape:cy="11.84796"
     inkscape:window-x="0"
     inkscape:window-y="27"
     inkscape:window-maximized="1"
     inkscape:current-layer="svg2" /><defs
     id="defs4"><style
       type="text/css"
       id="style6">
    .fil1 {fill:#37B1A5}
    .fil0 {fill:#B6DDC7}
    .fil2 {fill:#F4F4EB}
    .fil4 {fill:#446785}
    .fil3 {fill:#D6AD43}
    .fil5 {fill:#446785;fill-rule:nonzero}
   </style></defs><g
     id="g3032"
     transform="matrix(0.74753428,0,0,0.72385166,-2.5423891,25.586875)"><polygon
       transform="translate(0,-50)"
       class="fil0"
       points="51.3098,54.3674 14.2043,55.674 25.149,37.4111 24.5367,20.0284 22.6029,14.8469 43.5887,14.4774 41.2678,18.6864 41.6649,39.5793 "
       id="polygon10"
       style="fill:#b6ddc7" /><path
       class="fil1"
       d="M 16.9098,2.965 7.74905,16.6377 c -3.89809,5.98473 -3.38108,13.9945 7.24576,13.1272 2.18672,-0.178986 35.278,0 35.278,0 13.8702,1.18839 12.2444,-7.78684 8.74991,-12.3059 L 49.58855,3.1013 16.90985,2.964939 z"
       id="path12"
       inkscape:connector-curvature="0"
       style="fill:#37b1a5" /><path
       class="fil1"
       d="m 52.6465,29.8723 c -0.734224,0 -1.52639,-0.03439 -2.37365,-0.107328 2.87e-4,-1.28e-4 -3.23068,-0.01755 -7.74083,-0.03596 -0.911966,-0.0037 -1.87731,-0.0075 -2.87851,-0.01107 -4.60641,-0.01755 -9.97882,-0.03242 -14.5403,-0.03242 -0.896683,0 -1.76306,4.15e-4 -2.5848,0.002 -0.177295,0 -0.352197,4.15e-4 -0.525089,9.89e-4 -3.70312,0.007 -6.43136,0.02945 -7.00842,0.07648 -0.535585,0.0439 -1.04507,0.06486 -1.53009,0.06486 -2.85104,0 -4.84037,-0.731289 -6.11487,-1.90976 -0.452441,-0.419292 -0.815262,-0.894259 -1.09449,-1.41383 -0.802245,-1.49286 -0.914231,-3.34809 -0.493088,-5.26237 0.122482,-0.5561 0.289312,-1.11715 0.497619,-1.67608 0.372711,-0.998651 0.876264,-1.98936 1.48915,-2.93007 l 9.16075,-13.6727 32.6787,0.136361 9.43417,14.3575 c 0.324312,0.419165 0.632448,0.876424 0.913242,1.36045 0.160034,0.274732 0.31072,0.558525 0.451197,0.848252 0.67887,1.40435 1.10796,2.95952 1.06051,4.42417 -0.0085,0.266788 -0.03302,0.530608 -0.07491,0.790313 -0.01643,0.102414 -0.03554,0.204924 -0.05749,0.305743 -0.04645,0.213826 -0.105381,0.424684 -0.177295,0.63047 -0.206328,0.589919 -0.520558,1.14305 -0.962662,1.64067 -0.39412,0.44354 -0.88976,0.842732 -1.49981,1.18245 -0.414475,0.230671 -0.881656,0.434032 -1.40716,0.605935 -0.28223,0.09233 -0.582581,0.175891 -0.899236,0.24924 -1.04494,0.242285 -2.27806,0.375679 -3.72265,0.375679 z"
       id="path14"
       inkscape:connector-curvature="0"
       style="fill:#37b1a5" /><path
       class="fil2"
       d="M 13.9019,27.7136 C 9.85526,28.090268 6.6481,25.28386 9.25229,20.33004 l 18.5962,-30.0811 -0.136648,-19.9633 c 0.0133,-1.36725 -0.161279,-2.73449 -1.23089,-4.10187 2.34124,1.10355 4.46156,2.28062 4.64849,4.102 l 0.27486,21.0568 c 0.06103,4.72991 -7.28383,14.5054 -10.5155,20.2205 -4.39826,7.77822 -10.2187,13.5472 -6.98689,16.1505 z"
       id="path16"
       inkscape:connector-curvature="0"
       style="fill:#f4f4eb" /><path
       class="fil3"
       d="m 54.5258,27.4634 c 4.04536,0.375551 5.61256,-2.56667 3.0082,-7.52049 l -18.5953,-30.081 0.136074,-19.9627 c -0.01219,-1.36741 0.161151,-2.73465 1.23172,-4.10187 -2.34235,1.10355 -2.95837,2.28046 -3.1453,4.10187 l -0.136648,20.92 c -0.03044,4.73033 7.82949,14.0953 11.0607,19.8104 4.39826,7.77819 9.67209,14.2307 6.44055,16.8339 z"
       id="path18"
       inkscape:connector-curvature="0"
       style="fill:#d6ad43" /><path
       class="fil4"
       d="m 42.1879,-34.8553 c -0.883666,1.30551 -1.51978,2.59883 -1.74506,3.88619 -0.263278,1.50319 -0.205339,3.01446 -0.1623,4.62456 l -5.12783,-1.6e-4 -0.125609,0 c -0.635958,0.03455 -1.11462,0.569691 -1.07963,1.20552 0.03455,0.63599 0.56899,1.13262 1.20495,1.09762 l 5.16452,-1.27e-4 0.216378,8.78051 -5.38061,0 -0.125609,0 c -0.635958,0.035 -1.11462,0.569564 -1.07963,1.20552 0.03455,0.63583 0.56899,1.13246 1.20495,1.09749 l 5.43427,0 0.05354,2.14113 c 0.0049,0.210859 0.06643,0.416198 0.180262,0.594067 l 4.10215,6.27956 -5.52319,0 -0.126056,0 c -0.635958,0.03439 -1.11459,0.568958 -1.07963,1.20536 0.03513,0.635415 0.569564,1.13204 1.20552,1.09762 l 6.27898,-1.28e-4 c 0.229427,0.003 0.443093,-0.06033 0.630023,-0.180294 l 4.51609,6.92742 -5.30796,0 -0.107902,0 c -0.63583,0.03018 -1.12653,0.570138 -1.09749,1.20568 0.03002,0.63583 0.569979,1.12748 1.20539,1.09705 l 6.28026,-1.27e-4 c 0.16498,0.0026 0.31959,-0.0439 0.466894,-0.106785 l 4.37232,6.69304 -4.98368,0 -0.107902,0 c -0.636372,0.02945 -1.12764,0.569691 -1.09762,1.20511 0.03018,0.636404 0.569979,1.12748 1.20539,1.09762 l 6.27985,-1.6e-4 c 0.06103,9.89e-4 0.120217,-0.0095 0.179688,-0.01796 l 0.09007,0.125896 0.05338,0.09048 c 2.88148,3.62974 3.5108,6.9665 2.73548,9.26594 -0.775732,2.30005 -2.90145,3.83524 -6.47794,3.85065 l -42.0495,-0.03637 -0.07051,0 C 9.1439175,29.767347 7.1506075,28.3786 6.2203575,26.12204 c -0.930662,-2.25557 -0.669394,-5.5402 1.40378,-8.99619 l 18.2802995,-27.4028 c 0.129023,-0.19146 0.19883,-0.417187 0.197841,-0.648018 l -0.125896,-14.1243 c -0.02055,-2.18461 0.12194,-4.05088 -0.251792,-5.97382 -0.245539,-1.27096 -0.890717,-2.5378 -1.78143,-3.81469 l 18.2447,-0.01755 z m 2.30314,-2.30359 -22.9048,0.01857 c -0.463066,0.0035 -0.884783,0.273296 -1.06109,0.701522 -0.177295,0.428098 -0.07348,0.93012 0.251218,1.25934 1.75709,1.72496 2.4054,3.07434 2.69924,4.58857 0.293843,1.5141 0.177869,3.27362 0.19781,5.55918 l 0.126598,13.783 -18.1191,27.133 -0.036403,0.05398 c -2.36134,3.9366 -2.82612,7.96413 -1.54767,11.0655 1.27137,3.08171 4.37816,5.08307 8.36619,4.8762 l 0.07306,0 41.9948,0.03596 c 4.28625,-0.01799 7.53476,-2.14709 8.63678,-5.41574 1.09421,-3.24526 0.1154,-7.33522 -3.04094,-11.3537 l -0.05325,-0.09007 -17.1477,-26.2692 -0.323738,-13.8006 c -0.0011,-0.06697 8.61e-4,-0.114283 -1.28e-4,-0.179847 l 1.28e-4,-0.03596 c -0.02747,-2.17061 -0.148963,-3.87758 0.107774,-5.34379 0.266086,-1.51918 0.884209,-2.86801 2.6093,-4.62456 0.326832,-0.331203 0.414634,-0.829269 0.233224,-1.25931 -0.181251,-0.429789 -0.594896,-0.704936 -1.06134,-0.702128 z"
       id="path20"
       inkscape:connector-curvature="0"
       style="fill:#446785" /><g
       transform="translate(0,-50)"
       id="_96528888"><path
         id="_96528984"
         class="fil4"
         d="m 30.668,57.8042 c 0.47318,0 0.856898,0.383719 0.856898,0.856898 0,0.473148 -0.383719,0.856898 -0.856898,0.856898 -0.473148,0 -0.856898,-0.38375 -0.856898,-0.856898 0,-0.47318 0.38375,-0.856898 0.856898,-0.856898 z m -1.76414,0.478954 0,2.84348 4.94974,0 0,0.737191 -8.37242,0 c -0.728609,0 -1.30538,0.640392 -1.47438,1.31645 l 0,6.47676 c 0.266309,0.799023 0.731257,1.2277 1.5797,1.3691 l 2.63284,0 0.05264,-2.47488 c 0.132086,-1.3206 0.793854,-2.15973 2.10629,-2.42221 l 6.26616,-0.05268 c 0.712944,-0.178188 1.24011,-0.642626 1.42174,-1.36907 l 0,-6.47679 c -0.234468,-0.703404 -0.61305,-1.08195 -1.31642,-1.31642 l -6.52947,0 c -0.715879,0.238648 -1.07937,0.658004 -1.31642,1.36907 z"
         inkscape:connector-curvature="0"
         style="fill:#446785" /><path
         id="_96528912"
         class="fil3"
         d="m 36.2887,73.2903 c 0.473148,0 0.856866,0.383719 0.856866,0.856898 0,0.473148 -0.383719,0.856898 -0.856866,0.856898 -0.47318,0 -0.856898,-0.38375 -0.856898,-0.856898 0,-0.47318 0.383719,-0.856898 0.856898,-0.856898 z m 2.40935,-9.00416 c -0.132054,1.3206 -0.793854,2.15973 -2.10629,2.42221 l -6.26616,0.05268 c -0.712944,0.178188 -1.24011,0.642594 -1.42174,1.36907 l 0,6.47679 c 0.234468,0.703404 0.613018,1.08195 1.31642,1.31642 l 6.52947,0 c 0.715879,-0.238648 1.07937,-0.658004 1.31642,-1.3691 l 0,-2.84345 -4.94974,0 0,-0.737191 8.37242,0 c 0.728577,0 1.30538,-0.640392 1.47441,-1.31645 l 0,-6.47676 c -0.266341,-0.799023 -0.731257,-1.2277 -1.5797,-1.3691 l -2.63284,0 -0.05268,2.47488 z"
         inkscape:connector-curvature="0"
         style="fill:#d6ad43" /></g></g></svg>
