<?xml version="1.0" encoding="UTF-8" standalone="no"?>
<!-- Created with Inkscape (http://www.inkscape.org/) -->

<svg
   xmlns:dc="http://purl.org/dc/elements/1.1/"
   xmlns:cc="http://creativecommons.org/ns#"
   xmlns:rdf="http://www.w3.org/1999/02/22-rdf-syntax-ns#"
   xmlns:svg="http://www.w3.org/2000/svg"
   xmlns="http://www.w3.org/2000/svg"
   xmlns:sodipodi="http://sodipodi.sourceforge.net/DTD/sodipodi-0.dtd"
   xmlns:inkscape="http://www.inkscape.org/namespaces/inkscape"
   width="418.16"
   height="420.59"
   id="svg6302"
   version="1.1"
   inkscape:version="0.48.3.1 r9886"
   sodipodi:docname="wolf-5.svg">
  <defs
     id="defs6304" />
  <sodipodi:namedview
     id="base"
     pagecolor="#ffffff"
     bordercolor="#666666"
     borderopacity="1.0"
     inkscape:pageopacity="0.0"
     inkscape:pageshadow="2"
     inkscape:zoom="0.41"
     inkscape:cx="214.64264"
     inkscape:cy="524.30738"
     inkscape:document-units="px"
     inkscape:current-layer="layer1"
     showgrid="false"
     inkscape:window-width="1266"
     inkscape:window-height="636"
     inkscape:window-x="101"
     inkscape:window-y="48"
     inkscape:window-maximized="0"
     inkscape:object-paths="false" />
  <metadata
     id="metadata6307">
    <rdf:RDF>
      <cc:Work
         rdf:about="">
        <dc:format>image/svg+xml</dc:format>
        <dc:type
           rdf:resource="http://purl.org/dc/dcmitype/StillImage" />
        <dc:title></dc:title>
      </cc:Work>
    </rdf:RDF>
  </metadata>
  <g
     inkscape:label="Layer 1"
     inkscape:groupmode="layer"
     id="layer1"
     transform="translate(0,-631.77218)">
    <path
       style="fill:#3fa51b;fill-opacity:1;stroke:#1d5700;stroke-width:9;stroke-miterlimit:4;stroke-opacity:1;stroke-dasharray:none"
       d="M 209.09374,637.26848 C 96.66435,637.26848 5.5,730.64018 5.5,845.83098 c 0,95.9355 63.26082,176.69642 149.34374,201.03122 0.32509,-1.0024 0.62407,-1.6548 0.9375,-2.6875 1.1394,-3.7539 2.15035,-7.5156 2.5625,-9.7812 0.4382,-2.4089 1.89115,-11.2424 3.21875,-19.7188 l 2.40625,-15.40622 0,-0.1563 0,-12.875 c 0,-3.7103 0.0466,-6.3499 0,-8.4062 -0.0466,-2.0563 -0.18635,-3.5292 -0.59375,-4.875 -0.40735,-1.3458 -1.0701,-2.4611 -2.0625,-3.8125 -0.9924,-1.3515 -2.31445,-2.9392 -4.125,-5.2188 -3.98553,-5.018 -6.97118,-9.1557 -9.34375,-13.0312 -1.18628,-1.9378 -2.22985,-3.8075 -3.15625,-5.6875 -0.9264,-1.8801 -1.73793,-3.7758 -2.5,-5.75 l -1.78125,-4.5938 0.0625,-14.8125 c 0.0365,-9.4144 0.21964,-17.9837 0.53125,-24.9062 0.31161,-6.9226 0.75175,-12.1983 1.25,-15.0313 0.4384,-2.4927 0.85058,-4.6081 1.34375,-6.5625 0.49317,-1.9543 1.05738,-3.743 1.75,-5.5312 0.69262,-1.7883 1.52577,-3.5681 2.5625,-5.5625 1.03673,-1.9945 2.28699,-4.2083 3.8125,-6.7813 1.8075,-3.0485 3.15738,-5.362 4.21875,-7.3437 1.06137,-1.9818 1.8114,-3.6137 2.375,-5.25 0.5636,-1.6363 0.96708,-3.3004 1.28125,-5.3125 0.31417,-2.0122 0.5619,-4.3907 0.875,-7.5 0.37245,-3.6992 0.63627,-5.9341 1.09375,-8.125 0.45748,-2.191 1.10865,-4.3379 2.25,-7.8125 1.24035,-3.776 1.89823,-5.8484 2.25,-7.6875 0.35177,-1.8391 0.3974,-3.4449 0.40625,-6.25 0.008,-2.653 -0.0484,-4.3182 -0.3125,-6.0313 -0.26408,-1.713 -0.73525,-3.4738 -1.59375,-6.3125 -1.28148,-4.2371 -2.26903,-8.0297 -2.96875,-11.4687 -0.69972,-3.439 -1.11688,-6.5031 -1.25,-9.3125 -0.13312,-2.8095 0.0192,-5.339 0.4375,-7.6875 0.41832,-2.3486 1.10788,-4.5375 2.0625,-6.5938 0.6619,-1.4258 1.29845,-2.294 2.09375,-2.9062 0.7954,-0.6122 1.7985,-1.0179 3.375,-1.3125 0.6887,-0.1286 1.3839,-0.2959 1.9375,-0.4688 0.2769,-0.087 0.49865,-0.1863 0.71875,-0.2812 0.2201,-0.095 0.4112,-0.1301 0.6875,-0.4063 0.4171,-0.4171 0.3451,-0.5592 0.4375,-0.8437 0.092,-0.2844 0.19155,-0.6397 0.28125,-1.0313 0.1794,-0.7834 0.3561,-1.7737 0.5,-2.8125 0.2699,-1.9472 0.9061,-4.666 1.3125,-5.7812 0.3558,-0.976 0.58345,-1.4252 0.96875,-1.8125 0.3852,-0.3872 1.02855,-0.7801 2.28125,-1.4063 0.9812,-0.4905 1.90309,-0.8314 2.875,-1.0937 0.97191,-0.2623 1.99385,-0.4459 3.1875,-0.5313 1.724,-0.1234 2.52385,-0.1387 2.90625,-0.031 0.3823,0.1073 0.6747,0.3511 1.5,1.1875 0.4006,0.406 1.03871,1.414 1.84375,2.9062 0.80504,1.4922 1.77705,3.4686 2.8125,5.8438 1.772,4.0646 5.33955,11.6142 7.96875,16.8437 1.30163,2.589 2.39695,4.7417 3.46875,6.625 1.0718,1.8834 2.10852,3.5227 3.25,5.125 1.14148,1.6023 2.3956,3.1603 3.90625,4.9063 1.51065,1.7459 3.28942,3.6545 5.46875,5.9687 2.8961,3.0753 6.18655,6.7386 7.21875,8 l 1.75,2.125 -0.1875,6.75 c -0.1136,3.9356 -0.25515,12.4637 -0.28125,19 l -0.0312,11.875 0.0937,0.4063 2.4375,5.5625 c 1.3851,3.1265 3.84665,7.6754 5.53125,10.2812 0.8045,1.2445 1.5398,2.4582 2.0625,3.4063 0.2613,0.4741 0.45985,0.8961 0.59375,1.1875 0.061,0.1332 0.1,0.2123 0.125,0.2812 0,-0.083 0.1524,0.48537 -0.0606,0.75417 -0.2255,0.2855 -0.52996,0.40087 -0.93686,0.71617 -0.8137,0.6306 -2.14689,0.92476 -2.47129,0.93596 -2.2793,0.079 -5.7935,-0.075 -7.5,-0.3125 -0.9042,-0.1258 -1.61555,-0.3262 -2.46875,-0.031 -0.4266,0.1474 -0.8715,0.5435 -1.0625,1 -0.1909,0.4565 -0.20285,0.9072 -0.15625,1.4063 0.0931,0.9982 0.43264,2.3198 1.0625,4.2187 0.62986,1.8989 1.5501,4.3752 2.75,7.7188 1.4696,4.0951 2.67382,7.407 3.78125,10.1875 1.10743,2.7804 2.11439,5.0449 3.125,7.0312 1.01061,1.9863 2.03963,3.6936 3.21875,5.4063 1.17912,1.7127 2.51202,3.4154 4.125,5.375 2.834,3.4432 7.192,9.1247 9.625,12.5625 3.0123,4.2564 4.79001,6.7044 7.84375,10.1875 3.05374,3.4831 7.38355,8.0013 15.5,16.4375 7.29975,7.5872 11.69743,12.2902 14.53125,15.625 1.41691,1.6674 2.45792,3.0106 3.25,4.1875 0.79208,1.1768 1.34873,2.1819 1.84375,3.25 0.67802,1.4628 1.28966,3.2535 1.875,5.3125 0.58534,2.0589 1.14669,4.3942 1.625,7 0.47831,2.6057 0.89306,5.4904 1.25,8.5937 0.35694,3.1033 0.65377,6.4173 0.875,9.9688 0.40534,6.5066 1.318,32.10062 1.6875,44.53122 67.13331,-34.09192 113.40627,-104.81112 113.40627,-186.78122 0,-115.1908 -91.13313,-208.5625 -203.56252,-208.5625 z"
       inkscape:connector-curvature="0"
       id="path6193"
       sodipodi:nodetypes="csccscccssccscccccsscccccsscssscscsssscccccccccscscccscscscsccccccccccccccccccsscsscsssscccssscscc" />
    <text
       xml:space="preserve"
       style="font-size:120px;font-style:normal;font-variant:normal;font-weight:500;font-stretch:normal;text-align:start;line-height:125%;letter-spacing:0px;word-spacing:0px;writing-mode:lr-tb;text-anchor:start;fill:#000000;fill-opacity:1;stroke:none;font-family:Exo;-inkscape-font-specification:Exo Medium"
       x="-12.941397"
       y="1155.1274"
       id="text2983"
       sodipodi:linespacing="125%"><tspan
         sodipodi:role="line"
         id="tspan2985"
         x="-12.941397"
         y="1155.1274"
         style="font-size:120px;font-style:normal;font-variant:normal;font-weight:500;font-stretch:normal;text-align:start;line-height:125%;writing-mode:lr-tb;text-anchor:start;font-family:Exo;-inkscape-font-specification:Exo Medium">Hack4LT</tspan></text>
  </g>
</svg>
